<svg width="83" height="100" viewBox="0 0 83 100" fill="none" xmlns="http://www.w3.org/2000/svg">
<path d="M20.1573 32.1457H23.7144C23.7144 32.1457 24.4767 20.7802 32.0991 18.1508C36.6726 16.6241 49.9695 20.3561 53.1032 20.6953C56.2369 21.0346 58.5236 20.5257 58.5236 20.5257L58.4389 32.1457L61.9961 33.0787C64.7063 28.6682 64.5369 22.3069 63.0124 18.066L65.7226 9.24496C63.6053 8.90569 61.4879 8.99051 59.2012 7.37897C54.543 3.98627 48.5297 0.423925 41.9236 0.763196C35.9104 1.10247 31.0828 6.27634 31.0828 6.27634C31.0828 6.27634 25.1542 6.95488 21.8512 12.7225C18.5481 18.4901 20.1573 32.1457 20.1573 32.1457Z" fill="#FF6F41"/>
<path d="M23.545 41.476C21.0041 41.476 18.8021 39.5252 18.548 36.9806L18.4633 36.1325C18.2939 34.8602 18.7174 33.6727 19.5643 32.7397C20.4113 31.8068 21.597 31.2979 22.7827 31.2979H23.2909C23.9684 31.2979 24.5613 31.8916 24.5613 32.5701C24.5613 33.2487 23.9684 33.8424 23.2909 33.8424H22.7827C22.2745 33.8424 21.7664 34.0968 21.4276 34.4361C21.0888 34.8602 20.9194 35.3691 21.0041 35.878L21.0888 36.7262C21.2582 37.9984 22.2745 38.9314 23.545 38.9314C24.2225 38.9314 24.8154 39.5252 24.8154 40.2037C24.8154 40.8822 24.2225 41.476 23.545 41.476Z" fill="#393936"/>
<path d="M59.5399 41.476C58.8624 41.476 58.2695 40.8822 58.2695 40.2037C58.2695 39.5252 58.8624 38.9314 59.5399 38.9314C60.8103 38.9314 61.9114 37.9984 61.9961 36.7262L62.0808 35.878C62.1655 35.3691 61.9961 34.8602 61.6573 34.4361C61.3185 34.012 60.8103 33.8424 60.3022 33.8424H59.6246C58.9471 33.8424 58.3542 33.2487 58.3542 32.5701C58.3542 31.8916 58.9471 31.2979 59.6246 31.2979H60.3022C61.5726 31.2979 62.7583 31.8068 63.5206 32.7397C64.3675 33.6727 64.7063 34.945 64.6216 36.1325L64.5369 36.9806C64.2828 39.5252 62.1655 41.476 59.5399 41.476Z" fill="#393936"/>
<path d="M81.7296 99.9998H1.27041C0.592857 99.9998 0 99.4061 0 98.7275V90.0761C0 77.099 6.18265 69.5503 21.1735 64.1219C26.7633 62.0863 30.4898 60.39 30.4898 55.4705V54.6224C30.4898 53.9438 31.0827 53.3501 31.7602 53.3501C32.4378 53.3501 33.0306 53.9438 33.0306 54.6224V55.4705C33.0306 62.5104 26.9327 64.7157 22.1051 66.4968C8.04592 71.5859 2.54082 78.2017 2.54082 90.0761V97.4553H80.4592V90.0761C80.4592 78.2017 74.9541 71.5859 60.8949 66.4968C55.9827 64.7157 49.9694 62.5104 49.9694 55.4705V54.6224C49.9694 53.9438 50.5622 53.3501 51.2398 53.3501C51.9173 53.3501 52.5102 53.9438 52.5102 54.6224V55.4705C52.5102 60.39 56.152 62.0863 61.8265 64.1219C76.902 69.5503 83 77.099 83 90.0761V98.7275C83 99.4909 82.4071 99.9998 81.7296 99.9998Z" fill="#393936"/>
<path d="M41.3306 51.3145C39.8908 51.3145 38.5357 51.06 37.1806 50.6359C36.5031 50.3815 36.1643 49.7029 36.3337 49.0244C36.5878 48.3458 37.2653 48.0066 37.9429 48.1762C40.1449 48.9396 42.4317 48.9396 44.7184 48.1762C45.3959 47.9217 46.0735 48.3458 46.3276 49.0244C46.5817 49.7029 46.1582 50.3815 45.4806 50.6359C44.1255 51.1448 42.7704 51.3145 41.3306 51.3145Z" fill="#393936"/>
<path d="M41.246 44.8687H40.2296C39.5521 44.8687 38.9592 44.275 38.9592 43.5964C38.9592 42.9179 39.5521 42.3242 40.2296 42.3242H41.246C41.8388 42.3242 42.347 41.8152 42.347 41.2215V35.7932C42.347 31.5523 44.3796 29.9408 46.2429 29.856C47.1745 29.856 50.647 29.856 50.7317 29.856C51.4092 29.856 52.0021 30.4497 52.0021 31.1282C52.0021 31.8068 51.4092 32.4005 50.7317 32.4005C50.7317 32.4005 47.1745 32.4005 46.3276 32.4005C45.4807 32.4005 44.8878 33.8424 44.8878 35.7932V41.2215C44.8878 43.2571 43.2786 44.8687 41.246 44.8687Z" fill="#393936"/>
<path d="M41.0766 59.3724C32.8613 59.3724 22.8674 50.4666 22.8674 39.3555V30.0255C22.8674 29.347 23.4603 28.7533 24.1378 28.7533C24.8154 28.7533 25.4082 29.347 25.4082 30.0255V39.2707C25.4082 49.0247 33.9623 56.8279 41.0766 56.8279C47.7674 56.8279 57.5919 49.6184 57.5919 39.6099V20.6956C57.5919 20.0171 58.1848 19.4233 58.8623 19.4233C59.5399 19.4233 60.1327 20.0171 60.1327 20.6956V39.6099C60.1327 50.5514 49.7154 59.3724 41.0766 59.3724Z" fill="#393936"/>
<path d="M41.6695 68.6177H41.3308C36.1644 68.6177 31.7604 66.4124 28.9655 62.3412C28.542 61.7474 28.7114 60.9841 29.3042 60.56C29.8971 60.1359 30.6593 60.3056 31.0828 60.8993C33.3695 64.2072 37.0114 66.0732 41.3308 66.0732H41.6695C46.0736 66.0732 49.8002 64.1223 52.0022 60.7296C52.4257 60.1359 53.1879 59.9663 53.7808 60.3904C54.3736 60.8145 54.543 61.5778 54.1195 62.1715C51.4093 66.3276 47.0053 68.6177 41.6695 68.6177Z" fill="#393936"/>
<path d="M35.9949 32.1461H30.9132C30.2357 32.1461 29.6428 31.5524 29.6428 30.8738C29.6428 30.1953 30.2357 29.6016 30.9132 29.6016H35.9949C36.6724 29.6016 37.2653 30.1953 37.2653 30.8738C37.2653 31.6372 36.6724 32.1461 35.9949 32.1461Z" fill="#393936"/>
<path d="M33.7083 36.5563C34.6438 36.5563 35.4022 35.7968 35.4022 34.8599C35.4022 33.9231 34.6438 33.1636 33.7083 33.1636C32.7728 33.1636 32.0144 33.9231 32.0144 34.8599C32.0144 35.7968 32.7728 36.5563 33.7083 36.5563Z" fill="#393936"/>
<path d="M48.8684 36.5563C49.8039 36.5563 50.5623 35.7968 50.5623 34.8599C50.5623 33.9231 49.8039 33.1636 48.8684 33.1636C47.9329 33.1636 47.1746 33.9231 47.1746 34.8599C47.1746 35.7968 47.9329 36.5563 48.8684 36.5563Z" fill="#393936"/>
<path d="M43.9562 74.5549H44.2103C44.2103 74.5549 45.6501 73.3675 45.4807 72.5193L44.9725 69.9748C44.8879 69.2962 44.295 68.8721 43.7021 68.6177H39.8062C39.2134 68.8721 38.6205 69.2962 38.5358 69.9748L38.0277 72.5193C37.8583 73.3675 39.2981 74.5549 39.2981 74.5549H39.5521L37.3501 84.4786C37.3501 84.4786 40.5685 88.9739 41.4154 88.9739C44.295 88.2954 45.1419 86.3446 46.1583 84.4786L43.9562 74.5549Z" fill="#FF6F41"/>
<path d="M41.9236 90.755C41.6696 90.755 41.5002 90.6702 41.2461 90.5854C28.7961 83.0366 26.5094 68.3632 26.1706 64.0375C26.0859 63.3589 26.594 62.6804 27.3563 62.6804C28.0338 62.5956 28.7114 63.1045 28.7114 63.8678C29.0502 67.7694 31.0828 81.001 42.0083 88.0409C44.3798 86.6838 53.3573 80.4921 54.6277 63.6982C54.7124 63.0196 55.3053 62.5107 55.9828 62.5107C56.6604 62.5956 57.1685 63.1893 57.1685 63.8678C55.5594 84.4785 42.94 90.4158 42.4318 90.5854C42.2624 90.6702 42.093 90.755 41.9236 90.755Z" fill="#393936"/>
<path d="M20.4112 29.686C19.8183 29.686 19.3102 29.2619 19.1408 28.6682C16.8541 17.133 21.1734 8.05748 30.0663 5.51296C30.7438 5.34332 31.4214 5.68259 31.6755 6.36113C31.8449 7.03967 31.5061 7.71821 30.8285 7.97267C23.1214 10.1779 19.5643 17.8963 21.6816 28.1593C21.851 28.8378 21.3428 29.5163 20.6653 29.686C20.5806 29.686 20.4959 29.686 20.4112 29.686Z" fill="#393936"/>
<path d="M63.605 30.4495C63.5203 30.4495 63.3509 30.4495 63.2662 30.3647C62.5887 30.1951 62.2499 29.4317 62.4193 28.7532C63.7744 24.5123 63.0121 21.374 61.9958 17.6421C61.8264 16.9635 62.1652 16.285 62.8427 16.0305C63.5203 15.8609 64.1979 16.2002 64.4519 16.8787C65.553 20.8651 66.3999 24.5123 64.8754 29.4317C64.6213 30.1103 64.1979 30.4495 63.605 30.4495Z" fill="#393936"/>
<path d="M24.3071 31.4671H24.2224C23.5448 31.3823 22.952 30.7886 23.0367 30.11C23.2907 26.0388 25.9162 17.9811 33.5387 16.8785C36.2489 16.4544 39.7213 17.3874 43.5326 18.2356C49.2918 19.6775 55.8132 21.2042 59.9632 18.4052C62.4193 16.7088 63.9438 13.6554 64.6213 9.07526C64.706 8.39672 65.3836 7.88781 66.0611 7.97263C66.7387 8.05744 67.2469 8.73599 67.1622 9.41453C66.3999 14.758 64.452 18.4052 61.403 20.5256C56.3213 24.0032 49.2071 22.222 42.9397 20.6953C39.4673 19.8471 36.1642 18.9989 33.9622 19.3382C26.3397 20.4408 25.5775 30.1949 25.5775 30.2797C25.4928 30.9582 24.9846 31.4671 24.3071 31.4671Z" fill="#393936"/>
<path d="M65.2142 10.5174C61.403 10.5174 58.9469 8.90585 56.3214 7.2095C53.9499 5.68278 51.2397 3.90161 46.9203 3.05343C35.7408 0.763357 32.1836 7.29432 32.1836 7.37913C31.8448 7.97286 31.0826 8.22731 30.4897 7.88804C29.8969 7.54877 29.6428 6.78541 29.9816 6.19169C30.151 5.85242 34.4703 -2.03562 47.5132 0.593722C52.3408 1.52672 55.2203 3.3927 57.7612 5.08906C60.2173 6.70059 62.1652 7.97286 65.2142 7.97286C65.8918 7.97286 66.4846 8.56658 66.4846 9.24512C66.4846 9.92366 65.9765 10.5174 65.2142 10.5174Z" fill="#393936"/>
<path d="M19.0561 99.9999C18.3785 99.9999 17.7856 99.4062 17.7856 98.7276V91.094C17.7856 90.4155 18.3785 89.8218 19.0561 89.8218C19.7336 89.8218 20.3265 90.4155 20.3265 91.094V98.7276C20.3265 99.491 19.7336 99.9999 19.0561 99.9999Z" fill="#393936"/>
<path d="M63.944 99.9999C63.2664 99.9999 62.6736 99.4062 62.6736 98.7276V91.094C62.6736 90.4155 63.2664 89.8218 63.944 89.8218C64.6215 89.8218 65.2144 90.4155 65.2144 91.094V98.7276C65.2144 99.491 64.6215 99.9999 63.944 99.9999Z" fill="#393936"/>
</svg>
