<svg width="106" height="100" viewBox="0 0 106 100" fill="none" xmlns="http://www.w3.org/2000/svg">
<path d="M39.3225 64.9574C39.3225 59.5728 41.3741 53.9318 47.6999 52.8207C49.6661 51.7096 51.0338 51.2822 53.4273 51.2822H53.5983C61.2919 51.2822 67.6177 57.5215 67.6177 65.2139L67.3612 68.8891L64.1128 71.7951L63.3435 65.2993C58.7273 65.8976 53.5983 63.5899 48.2983 60.2566C43.3403 60.8549 41.2032 64.1882 41.887 69.2309H39.3225V64.9574Z" fill="#FF6F41"/>
<path d="M64.7114 73.5043C64.1985 73.5043 63.6856 73.1625 63.5146 72.6496C63.2581 71.9659 63.6855 71.2821 64.2839 71.0257C65.2243 70.6838 65.9936 67.5214 65.9936 64.8719C65.9936 57.8633 60.2662 52.2223 53.342 52.2223H53.171C50.9485 52.2223 49.8372 52.6496 48.042 53.6753C47.9565 53.7607 47.7855 53.7607 47.6146 53.8462C40.8614 54.9573 40.3485 62.8206 40.3485 65.2137C40.3485 67.0941 40.9468 70.0001 42.0581 70.3419C42.742 70.5984 43.0839 71.2821 42.8275 71.9659C42.571 72.6496 41.8872 72.9915 41.2033 72.7351C37.8694 71.624 37.7839 65.812 37.7839 65.2137C37.7839 59.3163 40.1775 52.6496 47.0162 51.3676C49.0678 50.2565 50.521 49.7437 53.171 49.7437H53.342C61.7194 49.7437 68.5581 56.5813 68.5581 64.9573C68.5581 66.2394 68.3872 72.4787 65.1388 73.5898C64.9678 73.5043 64.8823 73.5043 64.7114 73.5043Z" fill="#393936"/>
<path d="M52.7435 86.496C47.358 86.496 41.0322 80.8549 41.0322 73.6754V67.0942C41.0322 63.0772 43.2548 59.0601 48.2984 59.0601C48.6403 59.0601 48.8967 59.1455 49.1532 59.4019C54.7096 64.2737 63.6855 64.7011 63.7709 64.7011C64.4548 64.7011 64.9677 65.2994 64.9677 65.9831V73.9319C64.9677 80.8549 58.3 86.496 52.7435 86.496ZM47.8709 61.5387C43.8532 61.7951 43.5967 66.1541 43.5967 67.0088V73.59C43.5967 79.1455 48.6403 83.8464 52.7435 83.8464C56.6758 83.8464 62.4032 79.6584 62.4032 73.7609V67.0088C59.6677 66.8378 52.829 65.6413 47.8709 61.5387Z" fill="#393936"/>
<path d="M30.9451 97.4361C30.9451 94.0173 38.3822 89.06 44.6225 87.1797C49.7515 94.872 56.5902 94.872 61.7193 87.1797C69.2418 89.3164 74.5418 94.0173 74.5418 97.4361H30.9451Z" fill="#FF6F41"/>
<path d="M30.9453 99.6583C30.7743 99.6583 30.6033 99.6583 30.5178 99.5728C29.834 99.3164 29.492 98.5472 29.7485 97.9489C31.7146 92.6498 35.3904 89.3164 40.7759 87.778C44.4517 86.7523 45.3065 85.9831 45.3065 83.9318V82.4788C45.3065 81.7951 45.9049 81.1968 46.5888 81.1968C47.2727 81.1968 47.8711 81.7951 47.8711 82.4788V83.9318C47.8711 88.5472 44.1953 89.5728 41.4598 90.2566C35.3049 91.966 33.1678 95.9831 32.142 98.8036C31.8856 99.3164 31.4582 99.6583 30.9453 99.6583Z" fill="#393936"/>
<path d="M74.7985 99.5728C74.2856 99.5728 73.7727 99.231 73.6017 98.7181C72.4904 95.6412 70.4388 91.8805 64.5404 90.2566C61.805 89.4874 58.1292 88.4617 58.1292 83.9318V82.4788C58.1292 81.7951 58.7275 81.1968 59.4114 81.1968C60.0953 81.1968 60.6937 81.7951 60.6937 82.4788V83.9318C60.6937 86.0686 61.5485 86.8378 65.2243 87.778C72.405 89.7438 74.7985 94.4446 75.9953 97.8634C76.2517 98.5472 75.9098 99.231 75.2259 99.4874C75.1404 99.4874 74.9695 99.5728 74.7985 99.5728Z" fill="#393936"/>
<path d="M53.1708 94.4446C49.2385 94.4446 45.6482 92.0515 44.1095 88.4617C43.8531 87.778 44.1095 87.0942 44.7934 86.7523C45.4773 86.4959 46.1611 86.7523 46.5031 87.4361C47.6144 90.1711 50.2643 91.8805 53.1708 91.8805C56.0773 91.8805 58.7273 90.1711 59.8385 87.4361C60.095 86.7523 60.8643 86.4959 61.5482 86.7523C62.2321 87.0087 62.4885 87.778 62.2321 88.4617C60.6934 92.0515 57.1031 94.4446 53.1708 94.4446Z" fill="#393936"/>
<path d="M103.008 100C102.324 100 101.726 99.4019 101.726 98.7182V81.2823C101.726 74.7866 98.9049 71.2823 91.7242 68.5472C89.0742 67.5216 85.4839 66.2395 85.4839 61.966V60.3421C85.4839 59.6583 86.0823 59.0601 86.7661 59.0601C87.45 59.0601 88.0484 59.6583 88.0484 60.3421V61.966C88.0484 64.1883 89.5016 65.043 92.6645 66.1541C100.871 69.231 104.29 73.7609 104.29 81.2823V98.7182C104.29 99.4019 103.692 100 103.008 100Z" fill="#393936"/>
<path d="M72.1486 65.9827C71.8921 65.9827 71.5502 65.8972 71.3792 65.7263C70.8663 65.2989 70.7808 64.4442 71.2082 63.9314C71.6357 63.4186 71.8921 62.7348 71.8921 61.8801V60.2562C71.8921 59.5724 72.4905 58.9741 73.1744 58.9741C73.8582 58.9741 74.4566 59.5724 74.4566 60.2562V61.8801C74.4566 63.3331 74.0292 64.5297 73.2598 65.5553C72.9179 65.8972 72.4905 65.9827 72.1486 65.9827Z" fill="#393936"/>
<path d="M92.75 99.9998C92.0662 99.9998 91.4678 99.4016 91.4678 98.7178V85.8973C91.4678 85.2135 92.0662 84.6152 92.75 84.6152C93.4339 84.6152 94.0323 85.2135 94.0323 85.8973V98.7178C94.0323 99.4016 93.4339 99.9998 92.75 99.9998Z" fill="#393936"/>
<path d="M66.4209 49.0599C65.9935 49.0599 65.5661 48.889 65.3951 48.4616C63.5145 45.5556 63.3435 39.8291 65.908 36.5813C66.3355 36.0685 67.1903 35.983 67.7032 36.4103C68.2161 36.8377 68.3016 37.6924 67.8742 38.2052C66.079 40.4274 66.1645 44.9574 67.4467 47.0086C67.8742 47.6069 67.7032 48.3762 67.1048 48.8035C66.9338 48.9744 66.6774 49.0599 66.4209 49.0599Z" fill="#393936"/>
<path d="M93.7758 49.06C93.6048 49.06 93.3484 48.9746 93.1774 48.8891C92.579 48.5472 92.3226 47.778 92.579 47.1797C93.9468 44.3592 92.579 39.231 91.9806 38.3763C91.4677 37.8634 91.4677 37.0942 91.9806 36.5814C92.4935 36.0686 93.3484 36.0686 93.7758 36.5814C95.058 37.8634 96.7677 44.4446 94.8871 48.2908C94.7161 48.8036 94.2032 49.06 93.7758 49.06Z" fill="#393936"/>
<path d="M93.5194 35.2138C91.1258 35.2138 89.5871 34.1882 88.0484 33.248C86.6806 32.3933 85.2274 31.4531 82.7484 30.9403C76.5936 29.7437 74.371 33.0771 74.371 33.0771C74.029 33.6754 73.1742 33.8463 72.5758 33.5044C71.9774 33.1625 71.8065 32.3078 72.1484 31.7095C72.2339 31.5386 75.3113 26.8378 83.1758 28.3762C86.0823 28.9745 87.8774 30.0856 89.3306 31.0258C90.6984 31.8805 91.7242 32.5643 93.3484 32.5643C94.0323 32.5643 94.6306 33.1625 94.6306 33.8463C94.8016 34.6155 94.2032 35.2138 93.5194 35.2138Z" fill="#393936"/>
<path d="M79.9275 64.1025C74.542 64.1025 68.3872 58.547 68.3872 51.3675V44.8718V44.7863C68.5582 42.4786 70.0969 37.8632 74.9695 37.2649C76.5937 37.0085 78.7308 37.5213 80.9533 38.0342C84.2017 38.8034 87.8775 39.6581 90.1001 38.2051C91.3824 37.3504 92.1517 35.8119 92.4937 33.4188C92.5791 32.735 93.263 32.2222 93.9469 32.3077C94.6308 32.3931 95.1437 33.0769 95.0582 33.7607C94.6308 36.8376 93.434 39.0598 91.5533 40.3419V51.453C91.4679 58.547 85.313 64.1025 79.9275 64.1025ZM70.9517 44.9572V51.3675C70.9517 56.8376 75.9098 61.5384 79.9275 61.5384C83.9453 61.5384 88.9033 56.8376 88.9033 51.3675V41.3675C86.1679 41.9658 83.0904 41.1966 80.2695 40.5128C78.3033 40.0854 76.4227 39.5726 75.2259 39.7436C71.4646 40.2564 70.9517 44.5299 70.9517 44.9572Z" fill="#393936"/>
<path d="M80.3548 72.0514C76.4225 72.0514 72.9177 69.5728 71.6354 65.8975C71.379 65.2138 71.7209 64.53 72.4048 64.2736C73.0887 64.0172 73.7725 64.3591 74.029 65.0428C74.9693 67.6924 77.5338 69.4873 80.3548 69.4873C83.1758 69.4873 85.7403 67.6924 86.6806 65.0428C86.9371 64.3591 87.6209 64.0172 88.3048 64.2736C88.9887 64.53 89.3306 65.2138 89.0741 65.8975C87.7919 69.5728 84.2871 72.0514 80.3548 72.0514Z" fill="#393936"/>
<path d="M2.99197 99.9998C2.3081 99.9998 1.70972 99.4015 1.70972 98.7178V81.2819C1.70972 71.1109 9.57423 68.2904 13.421 66.9229C16.5839 65.7263 17.9517 64.9571 17.9517 62.9058V62.0511C17.9517 61.3673 18.55 60.769 19.2339 60.769C19.9178 60.769 20.5162 61.3673 20.5162 62.0511V62.9058C20.5162 67.0938 16.9258 68.3759 14.2758 69.3161C9.40327 71.0255 4.27423 73.5041 4.27423 81.2819V98.7178C4.27423 99.4015 3.67585 99.9998 2.99197 99.9998Z" fill="#393936"/>
<path d="M33.1678 68.7178C32.9968 68.7178 32.8258 68.7178 32.6549 68.6323C30.6033 67.7776 28.2097 66.2391 28.2097 62.9058V62.0511C28.2097 61.3673 28.8081 60.769 29.492 60.769C30.1758 60.769 30.7742 61.3673 30.7742 62.0511V62.9058C30.7742 64.5297 31.5436 65.3844 33.6807 66.3246C34.3646 66.581 34.621 67.3502 34.3646 68.034C34.1081 68.3759 33.6807 68.7178 33.1678 68.7178Z" fill="#393936"/>
<path d="M13.25 99.9998C12.5662 99.9998 11.9678 99.4016 11.9678 98.7178V85.8973C11.9678 85.2135 12.5662 84.6152 13.25 84.6152C13.9339 84.6152 14.5323 85.2135 14.5323 85.8973V98.7178C14.5323 99.4016 13.9339 99.9998 13.25 99.9998Z" fill="#393936"/>
<path d="M24.2775 64.8717C19.1485 64.8717 12.7372 58.6324 12.6517 51.6239L12.4807 47.3504C12.4807 46.7521 12.8226 46.2393 13.421 46.0683C16.8404 45.2136 26.2436 42.1367 28.8936 38.7179C29.1501 38.376 29.492 38.2051 29.9194 38.2051C30.3468 38.2051 30.6888 38.376 30.9452 38.7179C34.4501 43.7606 35.6468 46.6666 35.7323 46.7521C35.9033 46.8376 35.9033 47.0085 35.9033 47.1794V51.5384C35.9033 58.547 29.4065 64.8717 24.2775 64.8717ZM15.1307 48.2051L15.3017 51.5384C15.3017 51.5384 15.3017 51.5384 15.3017 51.6239C15.3017 57.1794 20.3452 62.3931 24.363 62.3931C28.2952 62.3931 33.4243 57.1794 33.4243 51.6239V47.6068C33.0823 46.923 32.0565 44.8717 29.9194 41.5384C25.9017 44.8717 17.9517 47.3504 15.1307 48.2051Z" fill="#393936"/>
<path d="M24.3629 76.3247C19.8323 76.3247 15.729 73.4187 14.2758 69.1452C14.0194 68.4614 14.3613 67.7777 15.0452 67.5213C15.729 67.2649 16.4129 67.6067 16.6694 68.2905C17.7807 71.5384 20.9436 73.7606 24.3629 73.7606C28.1242 73.7606 30.8597 70.7691 31.8855 67.8632C32.142 67.1794 32.8258 66.8375 33.5097 67.0939C34.1936 67.3503 34.5355 68.0341 34.279 68.7179C32.6549 73.2478 28.7226 76.3247 24.3629 76.3247Z" fill="#393936"/>
<path d="M39.1517 53.0767C38.5533 53.0767 38.0404 52.6494 37.8694 52.1365C37.3565 50.0853 37.5275 48.2904 37.6984 46.581C37.8694 45.128 38.0404 43.675 37.7839 41.8801C37.6129 40.2562 36.5871 34.7861 31.6291 32.7348C30.9452 32.4784 30.6888 31.7092 30.9452 31.0254C31.2017 30.3417 31.971 30.0853 32.6549 30.3417C38.8952 32.9058 40.1775 39.5724 40.3484 41.5383C40.6049 43.5895 40.4339 45.2989 40.2629 46.8374C40.092 48.4613 39.921 49.8289 40.3484 51.4528C40.5194 52.1365 40.092 52.8203 39.4081 52.9912C39.4081 53.0767 39.2371 53.0767 39.1517 53.0767Z" fill="#393936"/>
<path d="M8.97595 67.7775C8.46305 67.7775 7.95015 67.4357 7.77918 66.9228C6.15499 62.051 6.15499 57.0938 7.77918 51.4528C7.95015 50.9399 8.03563 50.4271 8.2066 49.9998C8.89047 47.7775 9.14692 47.0083 8.54853 42.8203C8.03563 39.2305 9.23241 35.7263 12.0534 32.9912C15.3872 29.6579 20.6018 27.9485 25.6453 28.6322C26.3292 28.7177 26.8421 29.4015 26.7566 30.0852C26.6711 30.769 25.9872 31.2818 25.3034 31.1963C21.1147 30.5981 16.6695 31.9656 13.8485 34.7861C11.7114 36.9228 10.6856 39.6579 11.1131 42.4784C11.7969 47.0083 11.455 48.2049 10.6856 50.769C10.6001 51.1963 10.4292 51.6237 10.2582 52.1365C8.80499 57.2647 8.80499 61.7092 10.2582 66.0681C10.5147 66.7519 10.0872 67.4357 9.48886 67.6921C9.23241 67.7775 9.06144 67.7775 8.97595 67.7775Z" fill="#393936"/>
<path d="M104.718 100H1.28226C0.598387 100 0 99.4018 0 98.7181C0 98.0343 0.598387 97.436 1.28226 97.436H104.718C105.402 97.436 106 98.0343 106 98.7181C106 99.4018 105.402 100 104.718 100Z" fill="#393936"/>
<path d="M43.1694 16.6667C43.1694 10.6838 49.3243 5.7265 57.2743 4.87179V4.78632C57.2743 2.13675 55.1372 0 52.4872 0H28.7226C26.0726 0 23.9355 2.13675 23.9355 4.78632V19.1453C23.9355 21.7949 26.0726 23.9316 28.7226 23.9316H28.8936H29.2355L27.7823 30.3419C27.6968 30.7692 28.2097 31.1111 28.5517 30.8547L37.7839 23.9316H46.5888C44.4517 21.8803 43.1694 19.4017 43.1694 16.6667Z" fill="#FF6F41"/>
<path d="M76.679 17.0088C76.679 10.4276 69.2419 5.04297 60.0097 5.04297C50.7774 5.04297 43.3403 10.4276 43.3403 17.0088C43.3403 23.59 50.7774 28.9746 60.0097 28.9746C60.5226 28.9746 61.0355 28.9746 61.4629 28.8891L70.6952 35.8122L68.729 27.1797C73.5161 25.1284 76.679 21.3678 76.679 17.0088Z" fill="#FF6F41"/>
<path d="M70.6952 37.0941C70.4387 37.0941 70.1823 37.0086 69.9258 36.8377L61.121 30.2565C60.7791 30.2565 60.3517 30.2565 60.0097 30.2565C50.0936 30.2565 42.0581 24.2736 42.0581 17.0086C42.0581 9.74365 50.0936 3.76074 60.0097 3.76074C69.9258 3.76074 77.9613 9.74365 77.9613 17.0086C77.9613 21.4531 75.0549 25.4701 70.1823 27.9488L71.9775 35.5556C72.0629 36.0684 71.892 36.5813 71.4646 36.9231C71.2081 37.0086 70.9516 37.0941 70.6952 37.0941ZM61.4629 27.6924C61.7194 27.6924 61.9758 27.7778 62.2323 27.9488L68.6436 32.7351L67.4468 27.5214C67.2758 26.9231 67.6178 26.3248 68.2162 26.0684C72.7468 24.1026 75.3968 20.6838 75.3968 17.0086C75.3968 11.1112 68.4726 6.32484 60.0097 6.32484C51.5468 6.32484 44.6226 11.1112 44.6226 17.0086C44.6226 22.906 51.5468 27.6924 60.0097 27.6924C60.5226 27.6924 60.95 27.6924 61.4629 27.6924Z" fill="#393936"/>
<path d="M80.7822 55.5556H80.0129C78.3032 55.5556 76.9354 54.1881 76.9354 52.4787V48.4616C76.9354 46.4103 76.1661 46.2394 75.8241 46.1539C75.2258 45.983 74.1145 45.3847 73.6871 45.1283C73.0887 44.7864 72.8322 44.0172 73.1741 43.4189C73.5161 42.8206 74.2854 42.5642 74.8838 42.9061C75.4822 43.2479 76.2516 43.5898 76.4225 43.6753C77.5338 43.9317 79.4145 44.9573 79.4145 48.4616V52.4787C79.4145 52.7351 79.6709 52.9915 79.9274 52.9915H80.6967C81.3806 52.9915 81.979 53.5898 81.979 54.2736C82.0645 54.9573 81.4661 55.5556 80.7822 55.5556Z" fill="#393936"/>
<path d="M84.8001 49.9147C85.5083 49.9147 86.0823 49.3407 86.0823 48.6326C86.0823 47.9246 85.5083 47.3506 84.8001 47.3506C84.0919 47.3506 83.5178 47.9246 83.5178 48.6326C83.5178 49.3407 84.0919 49.9147 84.8001 49.9147Z" fill="#393936"/>
<path d="M74.9693 49.9147C75.6774 49.9147 76.2515 49.3407 76.2515 48.6326C76.2515 47.9246 75.6774 47.3506 74.9693 47.3506C74.2611 47.3506 73.687 47.9246 73.687 48.6326C73.687 49.3407 74.2611 49.9147 74.9693 49.9147Z" fill="#393936"/>
<path d="M81.6372 58.9743H78.2178C77.5339 58.9743 76.9355 58.376 76.9355 57.6922C76.9355 57.0084 77.5339 56.4102 78.2178 56.4102H81.6372C82.321 56.4102 82.9194 57.0084 82.9194 57.6922C82.9194 58.376 82.321 58.9743 81.6372 58.9743Z" fill="#393936"/>
<path d="M85.9112 46.1539H83.3467C82.6628 46.1539 82.0645 45.5557 82.0645 44.8719C82.0645 44.1881 82.6628 43.5898 83.3467 43.5898H85.9112C86.5951 43.5898 87.1935 44.1881 87.1935 44.8719C87.1935 45.5557 86.5951 46.1539 85.9112 46.1539Z" fill="#393936"/>
<path d="M54.2822 76.9233H53.5129C51.8032 76.9233 50.4354 75.5558 50.4354 73.8464V69.8293C50.4354 67.778 49.6661 67.6071 49.3242 67.5216C48.7258 67.3507 47.6145 66.7524 47.1871 66.496C46.5887 66.1541 46.3322 65.3848 46.6741 64.7866C47.0161 64.1883 47.7854 63.9319 48.3838 64.2737C48.9822 64.6156 49.7516 64.9575 49.9225 65.043C51.0338 65.2994 52.9145 66.325 52.9145 69.8293V73.8464C52.9145 74.1028 53.1709 74.3592 53.4274 74.3592H54.1967C54.8806 74.3592 55.479 74.9575 55.479 75.6413C55.479 76.325 54.9661 76.9233 54.2822 76.9233Z" fill="#393936"/>
<path d="M57.4451 71.2819C58.1533 71.2819 58.7274 70.7079 58.7274 69.9998C58.7274 69.2918 58.1533 68.7178 57.4451 68.7178C56.7369 68.7178 56.1628 69.2918 56.1628 69.9998C56.1628 70.7079 56.7369 71.2819 57.4451 71.2819Z" fill="#393936"/>
<path d="M48.4693 71.2819C49.1774 71.2819 49.7515 70.7079 49.7515 69.9998C49.7515 69.2918 49.1774 68.7178 48.4693 68.7178C47.7611 68.7178 47.187 69.2918 47.187 69.9998C47.187 70.7079 47.7611 71.2819 48.4693 71.2819Z" fill="#393936"/>
<path d="M24.2774 55.8976C23.5935 55.8976 22.9951 55.2993 22.9951 54.6155C22.9951 54.0172 23.4225 53.5044 23.9354 53.4189C23.9354 53.248 23.9354 53.0771 23.9354 52.9916V48.7181C23.9354 47.1796 25.3887 45.7266 26.9274 45.7266C27.0983 45.7266 28.2096 45.2993 28.979 44.9574C29.6629 44.701 30.3467 44.9574 30.6887 45.6412C30.9451 46.3249 30.6887 47.0087 30.0048 47.3506C27.6967 48.2907 27.0983 48.2907 26.9274 48.2907C26.7564 48.2907 26.5 48.5471 26.5 48.7181V52.9916C26.5 53.7608 26.5 54.701 25.8161 55.3848C25.5596 55.5557 25.0467 55.8976 24.2774 55.8976Z" fill="#393936"/>
<path d="M19.8323 51.6242C20.5405 51.6242 21.1146 51.0502 21.1146 50.3421C21.1146 49.6341 20.5405 49.0601 19.8323 49.0601C19.1241 49.0601 18.55 49.6341 18.55 50.3421C18.55 51.0502 19.1241 51.6242 19.8323 51.6242Z" fill="#393936"/>
<path d="M29.2354 51.6242C29.9436 51.6242 30.5176 51.0502 30.5176 50.3421C30.5176 49.6341 29.9436 49.0601 29.2354 49.0601C28.5272 49.0601 27.9531 49.6341 27.9531 50.3421C27.9531 51.0502 28.5272 51.6242 29.2354 51.6242Z" fill="#393936"/>
<path d="M25.2178 59.8292H23.5081C22.8242 59.8292 22.2258 59.2309 22.2258 58.5472C22.2258 57.8634 22.8242 57.2651 23.5081 57.2651H25.2178C25.9016 57.2651 26.5 57.8634 26.5 58.5472C26.5 59.2309 25.9016 59.8292 25.2178 59.8292Z" fill="#393936"/>
<path d="M55.3079 81.5384C54.966 81.5384 54.6241 81.4529 54.3676 81.1965C54.0257 80.8546 52.316 80.8546 51.8886 81.1965C51.3757 81.7093 50.5208 81.6238 50.0934 81.1965C49.5805 80.6837 49.5805 79.9144 50.0934 79.4016C51.4612 78.0341 54.795 78.0341 56.1628 79.4016C56.6757 79.9144 56.6757 80.6837 56.1628 81.1965C55.9918 81.4529 55.6499 81.5384 55.3079 81.5384Z" fill="#393936"/>
</svg>
