<svg aria-hidden="true" style="position: absolute; width: 0; height: 0; overflow: hidden;" version="1.1" xmlns="http://www.w3.org/2000/svg" xmlns:xlink="http://www.w3.org/1999/xlink">
<defs>
<symbol id="icon-logo" viewBox="0 0 142 32">
<path d="M30.882 3.032h-29.606c-0.702 0-1.276 0.581-1.276 1.29v14.419c0 0.71 0.574 1.29 1.276 1.29s1.276-0.581 1.276-1.29v-13.129h11.772c1.404 0 2.552 1.161 2.552 2.581v10.548c0 0.71 0.574 1.29 1.276 1.29s1.276-0.581 1.276-1.29v-10.548c0-0.936-0.255-1.806-0.702-2.581h12.123c1.404 0 2.552 1.161 2.552 2.581v10.548c0 0.71 0.574 1.29 1.276 1.29s1.276-0.581 1.276-1.29v-10.548c0.032-2.839-2.265-5.161-5.073-5.161z"></path>
<path d="M47.471 3.032h-9.571c-0.702 0-1.276 0.581-1.276 1.29s0.574 1.29 1.276 1.29h9.571c1.404 0 2.552 1.161 2.552 2.581v10.548c0 0.71 0.574 1.29 1.276 1.29s1.276-0.581 1.276-1.29v-10.548c0-2.839-2.297-5.161-5.104-5.161z"></path>
<path d="M94.528 4.323c0-0.71-0.574-1.29-1.276-1.29h-10.432c-2.807 0-5.104 2.323-5.104 5.161v9.226h-14.58c-1.404 0-2.552-1.161-2.552-2.581v-9.194h14.037c0.702 0 1.276-0.581 1.276-1.29s-0.574-1.29-1.276-1.29h-14.037v-1.774c0-0.71-0.574-1.29-1.276-1.29s-1.276 0.581-1.276 1.29v1.774h-1.978c-0.702 0-1.276 0.581-1.276 1.29s0.574 1.29 1.276 1.29h1.978v9.194c0 2.839 2.297 5.161 5.104 5.161h15.856c0.702 0 1.276-0.581 1.276-1.29v-10.516c0-1.419 1.148-2.581 2.552-2.581h10.432c0.702 0 1.276-0.581 1.276-1.29z"></path>
<path d="M110.766 3.032h-14.42c-0.701 0-1.276 0.581-1.276 1.29s0.574 1.29 1.276 1.29h14.42c1.404 0 2.552 1.161 2.552 2.581v1.516c-0.765-0.452-1.627-0.71-2.552-0.71h-13.973c-2.807 0-5.105 2.323-5.105 5.161v0.645c0 2.839 2.298 5.161 5.105 5.161h13.973c2.106 0 3.86-0.065 3.86-0.065 0.701-0.032 1.244-0.581 1.244-1.29v-10.419c0-2.839-2.265-5.161-5.104-5.161zM113.318 17.387c-0.669 0-1.563 0.032-2.552 0.032h-13.973c-1.404 0-2.552-1.161-2.552-2.581v-0.645c0-1.419 1.148-2.581 2.552-2.581h13.973c1.404 0 2.552 1.161 2.552 2.581v3.193z"></path>
<path d="M51.3 3.032c0.705 0 1.276-0.578 1.276-1.29s-0.571-1.29-1.276-1.29c-0.705 0-1.276 0.578-1.276 1.29s0.571 1.29 1.276 1.29z"></path>
<path d="M141.648 17.645l-8.964-6.129 8.964-6.129c0.574-0.387 0.734-1.194 0.351-1.806-0.383-0.581-1.18-0.742-1.755-0.355l-9.826 6.677-0.096-0.065-9.38-6.645c-0.574-0.387-1.372-0.258-1.787 0.355-0.351 0.548-0.255 1.258 0.192 1.677l8.677 6.194 0.064 0.065-0.064 0.065-8.901 6.194c-0.446 0.419-0.574 1.129-0.191 1.677 0.383 0.581 1.18 0.742 1.787 0.355l9.667-6.71 9.826 6.71c0.574 0.387 1.372 0.258 1.755-0.355 0.414-0.581 0.255-1.387-0.319-1.774z"></path>
<path d="M5.328 30.129h-3.764l-0.798 1.806h-0.766l3.095-6.774h0.702l3.095 6.774h-0.766l-0.798-1.806zM5.073 29.548l-1.627-3.645-1.627 3.645h3.254z"></path>
<path d="M11.868 25.806h-2.361v-0.645h5.455v0.645h-2.361v6.161h-0.702v-6.161h-0.032z"></path>
<path d="M20.418 25.806h-2.361v-0.645h5.455v0.645h-2.361v6.161h-0.734v-6.161z"></path>
<path d="M26.862 28.581c0-1.968 1.499-3.452 3.541-3.452s3.541 1.452 3.541 3.452c0 2-1.531 3.452-3.541 3.452-2.042-0.032-3.541-1.484-3.541-3.452zM33.243 28.581c0-1.613-1.212-2.806-2.839-2.806s-2.839 1.194-2.839 2.806c0 1.613 1.212 2.806 2.839 2.806s2.839-1.194 2.839-2.806z"></path>
<path d="M43.069 31.967l-1.531-2.194c-0.16 0.032-0.351 0.032-0.542 0.032h-1.818v2.161h-0.702v-6.806h2.52c1.723 0 2.776 0.871 2.776 2.323 0 1.064-0.574 1.806-1.531 2.129l1.659 2.323h-0.83v0.032zM43.037 27.516c0-1.097-0.702-1.71-2.074-1.71h-1.787v3.387h1.787c1.34 0 2.074-0.613 2.074-1.677z"></path>
<path d="M53.979 25.161v6.774h-0.574l-4.371-5.484v5.516h-0.702v-6.806h0.574l4.371 5.516v-5.516h0.702z"></path>
<path d="M63.869 31.322v0.613h-4.785v-6.774h4.626v0.645h-3.924v2.419h3.509v0.613h-3.509v2.516h4.084v-0.032z"></path>
<path d="M70.664 29.613v2.355h-0.702v-2.355l-2.712-4.452h0.766l2.329 3.806 2.329-3.806h0.702l-2.712 4.452z"></path>
<path d="M76.598 31.129l0.287-0.548c0.479 0.484 1.34 0.839 2.233 0.839 1.276 0 1.818-0.548 1.818-1.194 0-1.871-4.147-0.71-4.147-3.226 0-1 0.766-1.871 2.488-1.871 0.766 0 1.563 0.226 2.106 0.613l-0.255 0.581c-0.574-0.387-1.244-0.548-1.85-0.548-1.244 0-1.787 0.548-1.787 1.226 0 1.871 4.147 0.742 4.147 3.194 0 1-0.797 1.839-2.52 1.839-1.021-0.032-2.042-0.387-2.52-0.903z"></path>
<path d="M95.74 30.129h-3.764l-0.797 1.806h-0.733l3.094-6.774h0.702l3.094 6.774h-0.765l-0.83-1.806zM95.484 29.548l-1.627-3.645-1.627 3.645h3.253z"></path>
<path d="M102.28 25.806h-2.361v-0.645h5.455v0.645h-2.36v6.161h-0.702v-6.161h-0.032z"></path>
<path d="M114.85 25.161h0.702v6.161h3.796v0.613h-4.499v-6.774z"></path>
<path d="M127.707 30.129h-3.764l-0.798 1.806h-0.733l3.094-6.774h0.702l3.094 6.774h-0.765l-0.829-1.806zM127.42 29.548l-1.628-3.645-1.627 3.645h3.254z"></path>
<path d="M142.222 25.161l-2.265 6.774h-0.766l-2.010-5.774-1.978 5.774h-0.733l-2.266-6.774h0.734l1.946 5.839 2.010-5.839h0.67l1.978 5.871 1.978-5.871h0.702z"></path>
</symbol>
<symbol id="icon-arrow" viewBox="0 0 44 27" fill="none">
<path d="M0 13.5H44" stroke="#393936"/>
<path d="M44 13.5C36.5442 13.5 30.5 7.45584 30.5 0" stroke="#393936"/>
<path d="M44 13.5C36.5442 13.5 30.5 19.5442 30.5 27" stroke="#393936"/>
</symbol>
<symbol id="icon-icon1" viewBox="0 0 32 32">
<path fill="#ff5a26" style="fill: var(--color1, #ff5a26)" d="M32 16c0 8.837-7.163 16-16 16s-16-7.163-16-16c0-8.837 7.163-16 16-16s16 7.163 16 16z"></path>
<path fill="#fff" style="fill: var(--color2, #fff)" d="M17.971 3.068c0.020-0.072 0.052-0.131 0.092-0.191 0.046-0.059 0.098-0.105 0.157-0.138 0.065-0.033 0.131-0.059 0.216-0.066 0.079-0.013 0.17-0.007 0.262 0.013s0.17 0.053 0.236 0.092c0.065 0.039 0.124 0.092 0.164 0.145s0.072 0.112 0.085 0.178c0.013 0.066 0.020 0.125 0.007 0.184s-0.039 0.112-0.072 0.151c-0.033 0.039-0.065 0.072-0.105 0.092-0.039 0.026-0.085 0.046-0.131 0.059 0.046 0.033 0.079 0.072 0.111 0.118 0.026 0.039 0.046 0.092 0.065 0.151s0.013 0.131 0 0.204c-0.013 0.066-0.039 0.125-0.079 0.178s-0.092 0.092-0.157 0.125c-0.065 0.033-0.137 0.053-0.216 0.066-0.085 0.013-0.17 0.007-0.268-0.013s-0.19-0.053-0.262-0.099c-0.072-0.046-0.131-0.099-0.177-0.151s-0.079-0.125-0.092-0.197c-0.020-0.072-0.020-0.145-0.013-0.224l0.393 0.059c0 0.059 0.020 0.112 0.059 0.158 0.033 0.053 0.085 0.085 0.157 0.099s0.137 0.013 0.183-0.020c0.046-0.026 0.072-0.066 0.085-0.125 0.013-0.046 0-0.092-0.033-0.138s-0.085-0.072-0.157-0.092l-0.177-0.039 0.072-0.322 0.164 0.033c0.072 0.013 0.131 0.013 0.177-0.013 0.039-0.026 0.065-0.059 0.079-0.105s0-0.092-0.033-0.138c-0.033-0.046-0.085-0.053-0.151-0.066-0.059-0.013-0.111-0.007-0.157 0.020s-0.079 0.066-0.098 0.118l-0.386-0.105z"></path>
<path fill="#fff" style="fill: var(--color2, #fff)" d="M20.852 4.883l-0.242 0.25-0.373-0.178 1.309-1.295 0.373 0.178-0.196 1.835-0.373-0.178 0.046-0.348-0.543-0.263zM21.447 4.791l0.079-0.605-0.425 0.441 0.347 0.164z"></path>
<path fill="#fff" style="fill: var(--color2, #fff)" d="M25.153 6.073l-1.113 1.335-0.308-0.256 0.864-1.039-0.517-0.434-0.864 1.039-0.308-0.256 1.113-1.335 1.133 0.947z"></path>
<path fill="#fff" style="fill: var(--color2, #fff)" d="M26.913 8.111c0.052 0.072 0.092 0.151 0.111 0.23s0.026 0.158 0.013 0.23c-0.013 0.072-0.039 0.151-0.078 0.217s-0.092 0.125-0.157 0.178c-0.065 0.046-0.138 0.079-0.216 0.099s-0.151 0.020-0.229 0.007-0.151-0.039-0.216-0.085c-0.065-0.046-0.131-0.099-0.183-0.171l-0.164-0.224-0.445 0.329-0.236-0.322 1.401-1.026 0.399 0.539zM26.272 8.585c0.039 0.053 0.085 0.079 0.144 0.092s0.111 0 0.157-0.033c0.046-0.033 0.072-0.079 0.079-0.138s-0.007-0.112-0.039-0.164l-0.164-0.224-0.334 0.243 0.157 0.224z"></path>
<path fill="#fff" style="fill: var(--color2, #fff)" d="M28.033 12.155c-0.118 0.046-0.229 0.066-0.347 0.066s-0.223-0.026-0.327-0.066c-0.105-0.039-0.196-0.105-0.275-0.184s-0.144-0.178-0.183-0.283c-0.046-0.112-0.065-0.224-0.059-0.335 0-0.112 0.026-0.224 0.072-0.322s0.111-0.191 0.19-0.276c0.085-0.079 0.183-0.145 0.295-0.191s0.229-0.066 0.347-0.066 0.223 0.026 0.327 0.066c0.105 0.039 0.196 0.105 0.275 0.184s0.144 0.178 0.183 0.283c0.046 0.112 0.065 0.224 0.059 0.335s-0.026 0.224-0.072 0.322c-0.046 0.099-0.111 0.191-0.19 0.276-0.085 0.079-0.183 0.145-0.295 0.191zM27.882 11.78c0.065-0.026 0.125-0.066 0.17-0.105 0.046-0.046 0.085-0.092 0.111-0.151s0.039-0.112 0.039-0.171-0.007-0.118-0.033-0.178c-0.026-0.059-0.059-0.105-0.098-0.151-0.046-0.039-0.092-0.072-0.151-0.099s-0.118-0.033-0.183-0.033-0.131 0.013-0.196 0.039c-0.065 0.026-0.125 0.066-0.17 0.105-0.046 0.046-0.085 0.092-0.111 0.151-0.026 0.053-0.039 0.112-0.039 0.171s0.007 0.118 0.033 0.178c0.026 0.059 0.059 0.105 0.098 0.151 0.046 0.039 0.092 0.072 0.151 0.099s0.118 0.033 0.183 0.033 0.131-0.013 0.196-0.039z"></path>
<path fill="#fff" style="fill: var(--color2, #fff)" d="M27.614 13.937l1.722-0.171 0.039 0.401-1.342 0.132 0.046 0.441 1.342-0.132 0.039 0.401-1.342 0.132 0.046 0.441 1.342-0.132 0.039 0.401-1.722 0.171-0.209-2.084z"></path>
<path fill="#fff" style="fill: var(--color2, #fff)" d="M29.408 17.902l-0.209 1.223-0.38-0.066 0.144-0.829-0.268-0.046-0.131 0.763-0.38-0.066 0.131-0.763-0.301-0.053-0.144 0.855-0.38-0.066 0.216-1.249 1.702 0.296z"></path>
<path fill="#fff" style="fill: var(--color2, #fff)" d="M28.052 22.387l-1.584-0.704 0.164-0.368 0.628 0.276 0.268-0.605-0.628-0.276 0.164-0.368 1.584 0.704-0.164 0.368-0.602-0.27-0.268 0.605 0.602 0.27-0.164 0.368z"></path>
<path fill="#fff" style="fill: var(--color2, #fff)" d="M26.095 25.287l-1.355-1.078 0.249-0.316 0.537 0.427 0.412-0.519-0.537-0.427 0.249-0.316 1.355 1.078-0.249 0.316-0.517-0.414-0.412 0.519 0.517 0.414-0.249 0.316z"></path>
<path fill="#fff" style="fill: var(--color2, #fff)" d="M23.654 27.47l-1.061-1.381 0.314-0.243 0.353 0.46 0.164-0.125-0.092-0.664 0.347-0.27 0.098 0.783c0.072-0.013 0.137-0.020 0.19-0.007 0.059 0.007 0.118 0.026 0.183 0.059s0.124 0.086 0.19 0.165c0.046 0.059 0.079 0.125 0.098 0.197s0.020 0.145 0.007 0.217-0.039 0.145-0.079 0.21c-0.039 0.066-0.098 0.131-0.17 0.184l-0.543 0.414zM23.503 26.615l0.236 0.309 0.229-0.177c0.052-0.040 0.085-0.092 0.098-0.145s-0.007-0.099-0.039-0.145c-0.033-0.046-0.079-0.066-0.131-0.072s-0.105 0.013-0.164 0.052l-0.229 0.178z"></path>
<path fill="#fff" style="fill: var(--color2, #fff)" d="M18.449 29.705l-0.425-1.69 0.386-0.099 0.17 0.671 0.642-0.164-0.17-0.671 0.386-0.099 0.425 1.69-0.386 0.099-0.164-0.645-0.642 0.165 0.164 0.644-0.386 0.099z"></path>
<path fill="#fff" style="fill: var(--color2, #fff)" d="M16.099 28.535l0.105-0.335 0.412-0.007-0.589 1.749-0.412 0.007-0.648-1.729 0.412-0.007 0.118 0.329 0.602-0.007zM15.615 28.884l0.203 0.579 0.183-0.585-0.386 0.007z"></path>
<path fill="#fff" style="fill: var(--color2, #fff)" d="M9.861 27.654c0.052-0.112 0.118-0.21 0.203-0.289s0.177-0.138 0.281-0.184c0.105-0.046 0.209-0.066 0.321-0.066s0.223 0.026 0.327 0.072c0.105 0.046 0.196 0.112 0.275 0.197s0.137 0.177 0.17 0.283c0.039 0.105 0.059 0.217 0.059 0.329 0 0.118-0.026 0.23-0.079 0.349-0.052 0.112-0.118 0.21-0.203 0.289s-0.177 0.145-0.281 0.184-0.209 0.066-0.321 0.066c-0.111 0-0.223-0.026-0.327-0.072s-0.196-0.112-0.275-0.197c-0.079-0.085-0.137-0.177-0.17-0.283-0.039-0.105-0.059-0.217-0.052-0.329-0.007-0.118 0.020-0.237 0.072-0.349zM10.227 27.818c-0.026 0.066-0.046 0.131-0.046 0.197s0.007 0.125 0.026 0.184c0.020 0.059 0.052 0.105 0.092 0.151s0.092 0.079 0.144 0.105c0.059 0.026 0.118 0.039 0.177 0.039s0.118-0.013 0.177-0.039c0.052-0.026 0.105-0.059 0.151-0.105s0.085-0.105 0.111-0.171c0.026-0.066 0.046-0.131 0.046-0.197s-0.007-0.125-0.026-0.184c-0.020-0.059-0.052-0.105-0.092-0.151s-0.092-0.079-0.144-0.105c-0.059-0.026-0.118-0.039-0.177-0.039s-0.118 0.013-0.177 0.039c-0.059 0.026-0.105 0.059-0.151 0.105s-0.085 0.105-0.111 0.171z"></path>
<path fill="#fff" style="fill: var(--color2, #fff)" d="M7.864 27.43l-0.949-0.73 0.236-0.309 0.635 0.487 0.216-0.283-0.511-0.394 0.236-0.309 0.511 0.395 0.367-0.48 0.314 0.243-1.054 1.381z"></path>
<path fill="#fff" style="fill: var(--color2, #fff)" d="M5.56 25.366l-0.759-0.927 0.295-0.243 0.511 0.618 0.275-0.23-0.412-0.5 0.295-0.243 0.412 0.5 0.465-0.388 0.255 0.309-1.335 1.105z"></path>
<path fill="#fff" style="fill: var(--color2, #fff)" d="M3.766 22.834l-0.177-0.355 1.205-0.611-0.354-0.704 0.34-0.171 0.53 1.059-1.545 0.783z"></path>
<path fill="#fff" style="fill: var(--color2, #fff)" d="M4.185 19.204l0.105 0.388-1.669 0.467-0.105-0.388 1.669-0.467z"></path>
<path fill="#fff" style="fill: var(--color2, #fff)" d="M2.051 16.258l1.728-0.105 0.020 0.362-0.975 0.763 1.015-0.059 0.026 0.401-1.728 0.105-0.020-0.368 0.975-0.763-1.015 0.059-0.026-0.395z"></path>
<path fill="#fff" style="fill: var(--color2, #fff)" d="M2.189 14.233l0.229-1.223 0.38 0.072-0.157 0.829 0.268 0.053 0.137-0.763 0.38 0.072-0.137 0.763 0.295 0.053 0.157-0.855 0.38 0.072-0.229 1.249-1.702-0.322z"></path>
<path fill="#fff" style="fill: var(--color2, #fff)" d="M5.959 9.262l-0.949 0.046 0.642 0.427-0.216 0.335-1.453-0.953 0.216-0.335 0.622 0.408-0.334-0.848 0.249-0.381 0.373 0.98 1.093-0.059-0.242 0.381z"></path>
<path fill="#fff" style="fill: var(--color2, #fff)" d="M6.928 5.619l0.452 1.282c0.033 0.105 0.065 0.191 0.079 0.27 0.020 0.079 0.020 0.145 0.020 0.204-0.007 0.059-0.020 0.112-0.046 0.164-0.026 0.046-0.065 0.099-0.111 0.145-0.033 0.033-0.065 0.059-0.098 0.079-0.020 0.013-0.033 0.020-0.046 0.026l-0.242-0.263c0.013-0.007 0.020-0.013 0.033-0.020 0.007-0.007 0.020-0.013 0.033-0.026 0.013-0.007 0.026-0.020 0.039-0.033 0.033-0.026 0.052-0.059 0.059-0.092 0.013-0.033 0.013-0.059 0.020-0.085 0-0.033-0.007-0.066-0.013-0.092l-1.257-0.513 0.301-0.283 0.779 0.322-0.281-0.802 0.281-0.283z"></path>
<path fill="#fff" style="fill: var(--color2, #fff)" d="M8.99 4.199c0.079-0.046 0.157-0.072 0.236-0.085s0.157-0.007 0.229 0.013c0.072 0.020 0.144 0.053 0.203 0.099s0.118 0.105 0.157 0.178c0.039 0.072 0.065 0.145 0.072 0.224s0 0.151-0.020 0.23c-0.020 0.072-0.059 0.145-0.105 0.21s-0.111 0.118-0.19 0.164l-0.236 0.138 0.275 0.48-0.347 0.197-0.858-1.512 0.583-0.335zM9.389 4.889c0.052-0.033 0.092-0.072 0.105-0.131s0.013-0.112-0.020-0.158c-0.026-0.046-0.072-0.079-0.124-0.092-0.059-0.013-0.111-0.007-0.164 0.026l-0.236 0.138 0.209 0.362 0.229-0.145z"></path>
<path fill="#fff" style="fill: var(--color2, #fff)" d="M12.42 4.225c0.105-0.033 0.183-0.079 0.229-0.145s0.072-0.138 0.072-0.21l0.406-0.085c0.007 0.085-0.007 0.171-0.033 0.256s-0.059 0.164-0.111 0.237c-0.052 0.072-0.111 0.138-0.19 0.197s-0.164 0.099-0.268 0.131c-0.111 0.033-0.223 0.039-0.334 0.026s-0.216-0.053-0.314-0.105c-0.098-0.053-0.183-0.131-0.255-0.217-0.072-0.092-0.124-0.197-0.157-0.316s-0.046-0.237-0.033-0.355c0.013-0.118 0.046-0.224 0.098-0.322s0.124-0.184 0.209-0.256c0.085-0.072 0.19-0.125 0.301-0.158 0.098-0.026 0.196-0.039 0.288-0.026 0.092 0.007 0.177 0.033 0.262 0.066 0.079 0.033 0.151 0.085 0.216 0.145s0.118 0.125 0.157 0.204l-0.386 0.138c-0.020-0.033-0.046-0.059-0.072-0.085s-0.059-0.046-0.098-0.059c-0.039-0.013-0.079-0.020-0.118-0.026-0.046 0-0.092 0-0.137 0.020-0.059 0.020-0.111 0.046-0.157 0.085s-0.085 0.085-0.111 0.138c-0.026 0.053-0.046 0.112-0.052 0.178s0 0.131 0.020 0.204c0.020 0.066 0.052 0.131 0.092 0.184s0.085 0.092 0.137 0.125c0.052 0.033 0.105 0.053 0.17 0.059 0.052-0.007 0.111-0.013 0.17-0.026z"></path>
<path fill="#fff" style="fill: var(--color2, #fff)" d="M17.846 15.897l-2.923 1.688v-3.375l2.923 1.688z"></path>
</symbol>
<symbol id="icon-icon2" viewBox="0 0 96 32">
<path fill="none" stroke="#ff5a26" stroke-width="2.56" stroke-miterlimit="4" stroke-linecap="butt" stroke-linejoin="miter" style="stroke: var(--color1, #ff5a26)" d="M9.28 4.361l20.16 11.639-20.16 11.639v-23.279z"></path>
<path fill="none" stroke="#ff5a26" stroke-width="2.56" stroke-miterlimit="4" stroke-linecap="butt" stroke-linejoin="miter" style="stroke: var(--color1, #ff5a26)" d="M41.28 4.361l20.16 11.639-20.16 11.639v-23.279z"></path>
<path fill="none" stroke="#ff5a26" stroke-width="2.56" stroke-miterlimit="4" stroke-linecap="butt" stroke-linejoin="miter" style="stroke: var(--color1, #ff5a26)" d="M73.28 4.361l20.16 11.639-20.16 11.639v-23.279z"></path>
</symbol>
<symbol id="icon-circled" viewBox="0 0 32 32">
<path  d="M16 16.667c-1.841 0-3.333-1.492-3.333-3.333s1.492-3.333 3.333-3.333c1.841 0 3.333 1.492 3.333 3.333s-1.492 3.333-3.333 3.333zM16 18.667c2.945 0 5.333-2.388 5.333-5.333s-2.388-5.333-5.333-5.333c-2.946 0-5.333 2.388-5.333 5.333s2.388 5.333 5.333 5.333z"></path>
<path  d="M24.745 26.065c2.811-2.445 4.588-6.047 4.588-10.065 0-7.364-5.97-13.333-13.333-13.333s-13.333 5.97-13.333 13.333c0 4.018 1.777 7.621 4.588 10.065 2.341 2.036 5.399 3.268 8.745 3.268 3.222 0 6.176-1.143 8.481-3.045 0.089-0.073 0.177-0.148 0.264-0.224zM16.438 27.325c-0.145 0.005-0.291 0.008-0.438 0.008-0.012 0-0.024 0-0.037 0-0.11-0-0.219-0.002-0.329-0.006-2.164-0.069-4.174-0.744-5.868-1.861 1.295-2.083 3.604-3.467 6.233-3.467s4.938 1.384 6.233 3.467c-1.674 1.105-3.659 1.777-5.795 1.858zM23.807 24.216c-1.668-2.539-4.541-4.216-7.807-4.216s-6.139 1.677-7.807 4.216c-2.172-2.065-3.527-4.982-3.527-8.216 0-6.259 5.074-11.333 11.333-11.333s11.333 5.074 11.333 11.333c0 3.234-1.354 6.151-3.527 8.216z"></path>
</symbol>
<symbol id="icon-burger" viewBox="0 0 42 32">
<path  d="M0 0h41.6v6.4h-41.6v-6.4z"></path>
<path  d="M0 25.6h41.6v6.4h-41.6v-6.4z"></path>
<path  d="M19.2 12.8h22.4v6.4h-22.4v-6.4z"></path>
</symbol>
<symbol id="icon-close" viewBox="0 0 32 32">
<path d="M18.329 16.022l13.152-13.080c0.631-0.624 0.631-1.635 0-2.257-0.629-0.624-1.65-0.624-2.279 0l-13.14 13.069-13.262-13.263c-0.629-0.631-1.65-0.631-2.279 0-0.629 0.632-0.629 1.655 0 2.286l13.252 13.254-13.3 13.227c-0.629 0.624-0.629 1.635 0 2.257 0.629 0.624 1.65 0.624 2.279 0l13.289-13.215 13.209 13.211c0.629 0.631 1.65 0.631 2.279 0 0.629-0.632 0.629-1.655 0-2.286l-13.199-13.201z"></path>
</symbol>
</defs>
</svg>
