<svg width="132" height="123" viewBox="0 0 132 123" fill="none" xmlns="http://www.w3.org/2000/svg">
<path d="M2.2002 88.168V92.6308C2.2002 95.0255 4.0702 96.8759 6.4902 96.8759H112.42C114.73 96.8759 116.71 95.0255 116.71 92.6308V88.168H2.2002Z" fill="#FF6F41"/>
<path d="M112.09 99.0532H6.71C2.97 99.0532 0 96.1142 0 92.4133V19.7018C0 16.001 2.97 13.062 6.71 13.062H14.85C15.73 13.062 16.5 13.824 16.5 14.6948C16.5 15.5656 15.73 16.3275 14.85 16.3275H6.71C4.84 16.3275 3.3 17.8514 3.3 19.7018V92.4133C3.3 94.2638 4.84 95.7877 6.71 95.7877H112.09C113.96 95.7877 115.5 94.2638 115.5 92.4133V63.6771C115.5 62.8063 116.27 62.0443 117.15 62.0443C118.03 62.0443 118.8 62.8063 118.8 63.6771V92.4133C118.8 96.1142 115.83 99.0532 112.09 99.0532Z" fill="#393936"/>
<path d="M47.63 114.074C47.41 114.074 47.08 113.965 46.86 113.857C46.09 113.421 45.76 112.441 46.2 111.68C47.63 108.958 48.4 105.802 48.4 102.754V98.5087C48.4 97.6379 49.17 96.876 50.05 96.876C50.93 96.876 51.7 97.6379 51.7 98.5087V102.754C51.7 106.346 50.82 109.938 49.17 113.203C48.84 113.748 48.29 114.074 47.63 114.074Z" fill="#393936"/>
<path d="M71.17 114.074C70.62 114.074 69.96 113.748 69.74 113.203C68.09 109.938 67.21 106.346 67.21 102.754V98.5087C67.21 97.6379 67.98 96.876 68.86 96.876C69.74 96.876 70.51 97.6379 70.51 98.5087V102.754C70.51 105.91 71.28 108.958 72.71 111.68C73.15 112.441 72.82 113.421 72.05 113.857C71.61 113.965 71.39 114.074 71.17 114.074Z" fill="#393936"/>
<path d="M81.9498 123H37.9498C37.0698 123 36.2998 122.238 36.2998 121.367V113.748C36.2998 112.877 37.0698 112.115 37.9498 112.115H53.3498C54.2298 112.115 54.9998 112.877 54.9998 113.748C54.9998 114.619 54.2298 115.381 53.3498 115.381H39.5998V119.735H80.2998V115.381H62.1498C61.2698 115.381 60.4998 114.619 60.4998 113.748C60.4998 112.877 61.2698 112.115 62.1498 112.115H81.9498C82.8298 112.115 83.5998 112.877 83.5998 113.748V121.367C83.5998 122.238 82.8298 123 81.9498 123Z" fill="#393936"/>
<path d="M129.25 123H1.65C0.77 123 0 122.238 0 121.367C0 120.496 0.77 119.734 1.65 119.734H129.25C130.13 119.734 130.9 120.496 130.9 121.367C130.9 122.238 130.13 123 129.25 123Z" fill="#393936"/>
<path d="M114.95 89.2567H2.7501C1.8701 89.2567 1.1001 88.4948 1.1001 87.624C1.1001 86.7532 1.8701 85.9912 2.7501 85.9912H114.95C115.83 85.9912 116.6 86.7532 116.6 87.624C116.6 88.4948 115.83 89.2567 114.95 89.2567Z" fill="#393936"/>
<path d="M114.95 89.2567H3.8502C2.9702 89.2567 2.2002 88.4948 2.2002 87.624C2.2002 86.7532 2.9702 85.9912 3.8502 85.9912H114.95C115.83 85.9912 116.6 86.7532 116.6 87.624C116.6 88.4948 115.83 89.2567 114.95 89.2567Z" fill="#393936"/>
<path d="M73.3701 76.0856C73.1501 76.0856 72.8201 75.9768 72.6001 75.8679C70.6201 74.8883 68.4201 73.9086 65.7801 72.929C60.9401 71.1874 54.8901 69.0104 54.8901 61.8263V58.2343C54.8901 57.3635 55.6601 56.6016 56.5401 56.6016C57.4201 56.6016 58.1901 57.3635 58.1901 58.2343V61.8263C58.1901 66.398 61.7101 67.9219 66.9901 69.8812C69.7401 70.8608 72.1601 71.9493 74.2501 73.0378C75.0201 73.4732 75.3501 74.4529 74.9101 75.2148C74.5801 75.7591 73.9201 76.0856 73.3701 76.0856Z" fill="#393936"/>
<path d="M17.7101 76.0859C17.1601 76.0859 16.5001 75.7593 16.2801 75.2151C15.8401 74.4531 16.1701 73.4735 16.9401 73.0381C19.0301 71.9496 21.4501 70.8611 24.2001 69.8815C29.4801 67.9222 33.0001 66.3983 33.0001 61.8266C33.0001 60.9558 33.7701 60.1938 34.6501 60.1938C35.5301 60.1938 36.3001 60.9558 36.3001 61.8266C36.3001 69.0107 30.2501 71.1877 25.4101 72.9293C22.7701 73.9089 20.5701 74.8885 18.5901 75.8682C18.2601 76.0859 18.0401 76.0859 17.7101 76.0859Z" fill="#393936"/>
<path d="M28.6 45.7167H24.86C23.32 45.7167 22 44.4105 22 42.8866V35.4849C22 33.961 23.32 32.6548 24.86 32.6548H28.6V45.7167Z" fill="#FF6F41"/>
<path d="M64.8999 45.7167H68.6399C70.1799 45.7167 71.4999 44.4105 71.4999 42.8866V35.4849C71.4999 33.961 70.1799 32.6548 68.6399 32.6548H64.8999V45.7167Z" fill="#FF6F41"/>
<path d="M46.1998 53.7718C44.6598 53.7718 43.1198 53.3364 41.6898 52.5745C40.9198 52.1391 40.5898 51.1594 41.1398 50.2886C41.5798 49.5267 42.5698 49.2001 43.4498 49.7444C45.0998 50.724 47.4098 50.724 48.9498 49.7444C49.7198 49.309 50.7098 49.5267 51.2598 50.2886C51.6998 51.0506 51.4798 52.0302 50.7098 52.5745C49.2798 53.3364 47.7398 53.7718 46.1998 53.7718Z" fill="#393936"/>
<path d="M46.53 46.8053H45.65C44.77 46.8053 44 46.0434 44 45.1726C44 44.3018 44.77 43.5399 45.65 43.5399H46.53C46.97 43.5399 47.3 43.2133 47.3 42.7779V37.9885C47.3 33.9611 49.72 31.5664 53.68 31.5664H54.45C55.33 31.5664 56.1 32.3284 56.1 33.1991C56.1 34.0699 55.33 34.8319 54.45 34.8319H53.68C51.59 34.8319 50.6 35.8115 50.6 37.9885V42.7779C50.6 44.9549 48.73 46.8053 46.53 46.8053Z" fill="#393936"/>
<path d="M30.8 51.0505C30.14 51.0505 29.59 50.7239 29.26 50.0708C28.16 47.4584 27.5 44.846 27.5 42.0159V31.2398C27.5 24.9266 31.02 18.6133 39.05 18.6133C39.38 18.6133 39.71 18.7221 40.04 18.9398C47.3 23.9469 51.59 26.2328 58.3 28.4097C59.18 28.7363 59.62 29.6071 59.29 30.4779C58.96 31.3487 58.08 31.7841 57.2 31.4575C50.27 29.1717 45.87 26.8858 38.5 21.8788C31.13 22.2053 30.8 29.7159 30.8 31.2398V42.0159C30.8 44.3018 31.24 46.5876 32.23 48.7646C32.56 49.6354 32.23 50.5062 31.35 50.9416C31.24 51.0504 31.02 51.0505 30.8 51.0505Z" fill="#393936"/>
<path d="M46.3102 62.4798C44.5502 62.4798 42.7902 62.1532 41.0302 61.3913C40.1502 61.0648 39.7102 60.0851 40.0402 59.3232C40.3702 58.4524 41.3602 58.017 42.1302 58.3435C43.5602 58.8878 44.9902 59.2143 46.2002 59.2143C52.8002 59.2143 62.5902 52.1391 62.5902 42.4515V32.1108C62.5902 31.24 63.3602 30.478 64.2402 30.478C65.1202 30.478 65.8902 31.24 65.8902 32.1108V42.4515C66.0002 53.5541 55.2202 62.4798 46.3102 62.4798Z" fill="#393936"/>
<path d="M45.7602 75.6503C39.4902 75.6503 33.9902 73.3644 31.7902 69.7724C31.3502 69.0104 31.5702 68.0308 32.3402 67.4866C33.1102 67.0512 34.1002 67.2689 34.6502 68.0308C36.1902 70.5343 40.8102 72.2759 45.7602 72.2759C50.8202 72.2759 55.3302 70.5343 56.8702 68.0308C57.3102 67.2689 58.4102 67.0512 59.1802 67.4866C59.9502 67.922 60.1702 69.0104 59.7302 69.7724C57.5302 73.3644 52.0302 75.6503 45.7602 75.6503Z" fill="#393936"/>
<path d="M41.2502 34.8319H36.8502C35.9702 34.8319 35.2002 34.0699 35.2002 33.1991C35.2002 32.3284 35.9702 31.5664 36.8502 31.5664H41.2502C42.1302 31.5664 42.9002 32.3284 42.9002 33.1991C42.9002 34.0699 42.1302 34.8319 41.2502 34.8319Z" fill="#393936"/>
<path d="M39.3801 40.3831C40.3521 40.3831 41.1401 39.6034 41.1401 38.6415C41.1401 37.6796 40.3521 36.8999 39.3801 36.8999C38.4081 36.8999 37.6201 37.6796 37.6201 38.6415C37.6201 39.6034 38.4081 40.3831 39.3801 40.3831Z" fill="#393936"/>
<path d="M55.6599 40.3831C56.6319 40.3831 57.4199 39.6034 57.4199 38.6415C57.4199 37.6796 56.6319 36.8999 55.6599 36.8999C54.6879 36.8999 53.8999 37.6796 53.8999 38.6415C53.8999 39.6034 54.6879 40.3831 55.6599 40.3831Z" fill="#393936"/>
<path d="M33.5499 57.6904H31.0199C25.4099 57.6904 20.8999 53.2275 20.8999 47.6762V46.2612C20.8999 45.3904 21.6699 44.6284 22.5499 44.6284C23.4299 44.6284 24.1999 45.3904 24.1999 46.2612V47.6762C24.1999 51.3771 27.2799 54.4249 31.0199 54.4249H33.5499C34.4299 54.4249 35.1999 55.1868 35.1999 56.0576C35.1999 56.9284 34.4299 57.6904 33.5499 57.6904Z" fill="#FF6F41"/>
<path d="M29.1498 47.8939H25.5198C22.4398 47.8939 19.7998 45.3904 19.7998 42.2337V36.0293C19.7998 32.9815 22.3298 30.3691 25.5198 30.3691H28.0498C28.9298 30.3691 29.6998 31.1311 29.6998 32.0019C29.6998 32.8727 28.9298 33.7435 28.0498 33.7435H25.5198C24.1998 33.7435 23.0998 34.832 23.0998 36.1382V42.3426C23.0998 43.6488 24.1998 44.7373 25.5198 44.7373H29.1498C30.0298 44.7373 30.7998 45.4992 30.7998 46.37C30.7998 47.2408 30.0298 47.8939 29.1498 47.8939Z" fill="#393936"/>
<path d="M67.9802 47.8939H64.3502C63.4702 47.8939 62.7002 47.132 62.7002 46.2612C62.7002 45.3904 63.4702 44.6284 64.3502 44.6284H67.9802C69.3002 44.6284 70.4002 43.5399 70.4002 42.2337V36.0293C70.4002 34.7231 69.3002 33.6346 67.9802 33.6346H65.4502C64.5702 33.6346 63.8002 32.8727 63.8002 32.0019C63.8002 31.1311 64.5702 30.3691 65.4502 30.3691H67.9802C71.0602 30.3691 73.7002 32.8727 73.7002 36.0293V42.2337C73.7002 45.3904 71.1702 47.8939 67.9802 47.8939Z" fill="#393936"/>
<path d="M29.15 32.6548C28.27 32.6548 27.5 31.8929 27.5 31.0221V28.0831C27.5 18.6132 34.1 10.5584 43.23 8.92562C48.95 7.94597 54.67 9.46987 59.07 13.0619C63.47 16.6539 66 21.9876 66 27.6477C66 28.5185 65.23 29.2805 64.35 29.2805C63.47 29.2805 62.7 28.5185 62.7 27.6477C62.7 22.9672 60.61 18.5044 56.98 15.5654C53.35 12.5177 48.51 11.3203 43.78 12.1911C36.3 13.4973 30.8 20.246 30.8 28.0831V31.0221C30.8 31.8929 30.03 32.6548 29.15 32.6548Z" fill="#393936"/>
<path d="M72.0498 28.3009C71.1698 28.3009 70.3998 27.5389 70.3998 26.6681C70.3998 13.715 59.8398 3.26549 46.7498 3.26549C33.6598 3.26549 23.0998 13.715 23.0998 26.6681C23.0998 27.5389 22.3298 28.3009 21.4498 28.3009C20.5698 28.3009 19.7998 27.5389 19.7998 26.6681C19.7998 11.9735 31.8998 0 46.7498 0C61.5998 0 73.6998 11.9735 73.6998 26.6681C73.6998 27.5389 72.9298 28.3009 72.0498 28.3009Z" fill="#FF6F41"/>
<path d="M36.1898 57.6901H33.2198C31.8998 57.6901 30.7998 56.6016 30.7998 55.4042V54.6423C30.7998 53.3361 31.8998 52.3564 33.1098 52.3564H36.0798C37.3998 52.3564 38.3898 53.4449 38.3898 54.6423V55.4042C38.4998 56.6016 37.3998 57.6901 36.1898 57.6901Z" fill="#FF6F41"/>
<path d="M74.25 63.1325C73.81 63.1325 73.37 63.0237 73.15 62.6971C72.71 62.2617 72.49 61.4998 72.82 60.8467L79.2 45.4989V33.3077C79.2 31.1308 80.96 29.3892 83.16 29.3892H114.84C117.04 29.3892 118.8 31.1308 118.8 33.3077V52.683C118.8 54.86 117.04 56.6016 114.84 56.6016H88.88L74.91 63.0237C74.69 63.1325 74.47 63.1325 74.25 63.1325ZM83.16 32.6546C82.83 32.6546 82.5 32.9812 82.5 33.3077V45.8254C82.5 46.0431 82.5 46.2608 82.39 46.4785L77.44 58.2343L87.89 53.4449C88 53.3361 88.22 53.3361 88.55 53.3361H114.84C115.17 53.3361 115.5 53.0095 115.5 52.683V33.3077C115.5 32.9812 115.17 32.6546 114.84 32.6546H83.16Z" fill="#393936"/>
<path d="M130.35 46.8054C130.13 46.8054 129.8 46.6965 129.58 46.5877L123.97 43.5399C123.2 43.1045 122.87 42.1248 123.31 41.3629C123.75 40.601 124.74 40.2744 125.51 40.7098L127.6 41.9071L124.3 30.0425C124.3 29.9337 124.19 29.716 124.19 29.6071V16.9806C124.19 16.654 123.86 16.3275 123.53 16.3275H91.96C91.63 16.3275 91.3 16.654 91.3 16.9806V23.4027C91.3 24.2735 90.53 25.0355 89.65 25.0355C88.77 25.0355 88 24.2735 88 23.4027V16.9806C88 14.8036 89.76 13.062 91.96 13.062H123.64C125.84 13.062 127.6 14.8036 127.6 16.9806V29.2806L131.89 44.7372C132.11 45.3903 131.89 46.0434 131.34 46.4788C131.12 46.6965 130.68 46.8054 130.35 46.8054Z" fill="#FF6F41"/>
<path d="M90.2 45.7168C91.415 45.7168 92.4 44.7421 92.4 43.5398C92.4 42.3375 91.415 41.3628 90.2 41.3628C88.985 41.3628 88 42.3375 88 43.5398C88 44.7421 88.985 45.7168 90.2 45.7168Z" fill="#393936"/>
<path d="M98.9998 45.7168C100.215 45.7168 101.2 44.7421 101.2 43.5398C101.2 42.3375 100.215 41.3628 98.9998 41.3628C97.7848 41.3628 96.7998 42.3375 96.7998 43.5398C96.7998 44.7421 97.7848 45.7168 98.9998 45.7168Z" fill="#393936"/>
<path d="M107.8 45.7168C109.015 45.7168 110 44.7421 110 43.5398C110 42.3375 109.015 41.3628 107.8 41.3628C106.585 41.3628 105.6 42.3375 105.6 43.5398C105.6 44.7421 106.585 45.7168 107.8 45.7168Z" fill="#393936"/>
</svg>
