<svg width="108" height="100" viewBox="0 0 108 100" fill="none" xmlns="http://www.w3.org/2000/svg">
<path d="M20.6341 45C18.3512 45 16.4195 43.2456 16.1561 40.9649L16.0683 40.3509C15.9804 39.2105 16.3317 38.1579 17.0341 37.2807C17.8244 36.4035 18.878 35.9649 19.9317 35.9649H20.5463C21.2487 35.9649 21.8634 36.5789 21.8634 37.2807C21.8634 37.9824 21.3365 38.5965 20.6341 38.5965H20.0195C19.6683 38.5965 19.317 38.7719 19.0536 39.0351C18.7902 39.2982 18.7024 39.6491 18.7024 40.0877L18.7902 40.7895C18.878 41.7544 19.6683 42.4561 20.6341 42.4561C21.3365 42.4561 21.9512 43.0702 21.9512 43.7719C21.9512 44.4737 21.3365 45 20.6341 45Z" fill="#393936"/>
<path d="M18.0001 35.0877C17.3854 35.0877 16.8586 34.6491 16.683 34.0351C14.7513 24.1228 18.4391 16.228 26.1659 14.0351C26.8684 13.8596 27.5708 14.2105 27.8342 14.9123C28.0098 15.614 27.6586 16.3158 26.9562 16.5789C20.4586 18.421 17.561 24.9123 19.3171 33.5087C19.4927 34.2105 18.9659 34.9123 18.2635 35.0877C18.1757 35.0877 18.0879 35.0877 18.0001 35.0877Z" fill="#393936"/>
<path d="M35.561 63.1579C28.6244 63.1579 20.1951 55.5263 20.1951 45.9649V34.6491C20.1951 33.9474 20.8098 33.3333 21.5122 33.3333C22.2146 33.3333 22.8293 33.9474 22.8293 34.6491V45.9649C22.8293 53.7719 29.8537 60.5263 35.561 60.5263C41.7073 60.5263 49.1707 54.0351 49.1707 45.9649V31.1403C49.1707 30.4386 49.7854 29.8246 50.4878 29.8246C51.1903 29.8246 51.8049 30.4386 51.8049 31.1403V45.9649C51.8049 55.614 43.1122 63.1579 35.561 63.1579Z" fill="#393936"/>
<path d="M21.5122 35.9649C21.5122 35.9649 21.4244 35.9649 21.5122 35.9649C20.722 35.9649 20.1951 35.2632 20.1951 34.5614C20.3707 31.2281 22.4781 24.6491 29.239 23.6842C31.6098 23.3333 34.5951 24.1228 37.8439 24.9123C40.1268 25.4386 42.4976 26.0526 44.7805 26.3158C45.4829 26.4035 46.0098 27.0175 45.922 27.7193C45.8342 28.421 45.2195 28.9474 44.5171 28.8596C42.0585 28.5965 39.6 27.9824 37.2293 27.4561C34.2439 26.7544 31.522 26.0526 29.5903 26.3158C23.3561 27.193 22.8293 34.386 22.8293 34.7368C22.8293 35.4386 22.2146 35.9649 21.5122 35.9649Z" fill="#393936"/>
<path d="M36.0878 56.4912C32.7512 56.4912 30.2927 54.8245 30.2927 52.6316C30.2927 50.4386 32.839 48.7719 36.0878 48.7719C39.4244 48.7719 41.8829 50.4386 41.8829 52.6316C41.9707 54.8245 39.4244 56.4912 36.0878 56.4912ZM36.0878 51.3158C33.9805 51.3158 32.9268 52.193 32.9268 52.5438C32.9268 52.8947 34.0683 53.7719 36.0878 53.7719C38.1073 53.7719 39.2488 52.8947 39.2488 52.5438C39.3366 52.193 38.1951 51.3158 36.0878 51.3158Z" fill="#393936"/>
<path d="M27.0438 16.6666C26.8682 16.6666 26.6048 16.5789 26.4292 16.4912C25.8146 16.1403 25.5511 15.3508 25.9024 14.7368C25.9902 14.5614 28.6243 9.64908 36.1755 9.38593C36.878 9.38593 37.4926 9.91224 37.5804 10.614C37.5804 11.3158 37.0536 11.9298 36.3511 12.0175C30.3804 12.2807 28.3609 15.9649 28.3609 15.9649C28.0097 16.4035 27.5707 16.6666 27.0438 16.6666Z" fill="#393936"/>
<path d="M36.1756 46.4913H35.561C34.8585 46.4913 34.2439 45.8772 34.2439 45.1755C34.2439 44.4737 34.8585 43.8597 35.561 43.8597H36.1756C36.439 43.8597 36.878 43.772 36.878 43.4211V39.0351C36.878 36.4035 38.8098 35.0877 40.2146 34.386L43.7268 32.6316C44.3415 32.2807 45.1317 32.5439 45.4829 33.2456C45.8341 33.8597 45.5707 34.6492 44.8683 35L41.3561 36.7544C39.7756 37.5439 39.4244 38.2456 39.4244 39.1228V43.5088C39.5122 45.1755 38.1073 46.4913 36.1756 46.4913Z" fill="#393936"/>
<path d="M42.5854 40.3509C43.3128 40.3509 43.9025 39.7618 43.9025 39.0351C43.9025 38.3084 43.3128 37.7193 42.5854 37.7193C41.858 37.7193 41.2683 38.3084 41.2683 39.0351C41.2683 39.7618 41.858 40.3509 42.5854 40.3509Z" fill="#393936"/>
<path d="M31.1707 36.8421C30.9951 36.8421 30.7317 36.7544 30.5561 36.6666L27.0439 34.9123C26.4292 34.5614 26.1658 33.7719 26.4292 33.1579C26.7804 32.5438 27.5707 32.2807 28.1853 32.5438L31.6975 34.2982C32.3122 34.6491 32.5756 35.4386 32.3122 36.0526C32.1365 36.5789 31.6097 36.8421 31.1707 36.8421Z" fill="#393936"/>
<path d="M29.4146 40.3509C30.142 40.3509 30.7317 39.7618 30.7317 39.0351C30.7317 38.3084 30.142 37.7193 29.4146 37.7193C28.6872 37.7193 28.0975 38.3084 28.0975 39.0351C28.0975 39.7618 28.6872 40.3509 29.4146 40.3509Z" fill="#393936"/>
<path d="M49.522 66.4035C47.4147 72.807 41.2683 75.8772 35.3854 75.9649C29.9415 76.1403 24.4976 72.7193 22.8293 69.2982C13.4342 71.9298 5.79514 76.5789 5.26831 86.3158V97.3684H45.3073C45.3073 97.3684 44.8683 89.1228 47.4147 82.4561C48.2927 80.0877 50.839 77.9824 52.6829 76.3158C50.4 72.7193 49.522 69.0351 49.522 66.4035Z" fill="#FF6F41"/>
<path d="M1.31707 100C0.614634 100 0 99.386 0 98.6842V87.9825C0 77.1053 5.18049 70.7895 17.9122 66.2281C22.4781 64.5614 25.4634 63.2456 25.4634 59.2983V58.2456C25.4634 57.5439 26.0781 56.9298 26.7805 56.9298C27.4829 56.9298 28.0976 57.5439 28.0976 58.2456V59.2983C28.0976 65.3509 22.9171 67.193 18.7902 68.6842C7.2 72.8948 2.63415 78.3333 2.63415 87.9825V98.6842C2.63415 99.386 2.01951 100 1.31707 100Z" fill="#393936"/>
<path d="M50.4 67.8947C50.2244 67.8947 50.0488 67.8947 49.8732 67.807C46.4488 66.4035 43.0244 64.2982 43.0244 59.386V59.2105C43.0244 58.5088 43.639 57.8947 44.3415 57.8947C45.0439 57.8947 45.6586 58.5088 45.6586 59.2105V59.386C45.6586 62.193 47.0634 63.8597 50.839 65.4386C51.5415 65.7018 51.8049 66.4912 51.5415 67.193C51.3659 67.6316 50.9269 67.8947 50.4 67.8947Z" fill="#393936"/>
<path d="M17.1219 98.2456C16.4195 98.2456 15.8049 97.6316 15.8049 96.9298V87.2807C15.8049 86.5789 16.4195 85.9649 17.1219 85.9649C17.8244 85.9649 18.439 86.5789 18.439 87.2807V96.9298C18.439 97.6316 17.8244 98.2456 17.1219 98.2456Z" fill="#393936"/>
<path d="M35.561 73.7719C30.2927 73.7719 25.5512 70.7018 23.4439 65.8772C23.1805 65.1754 23.4439 64.4737 24.1463 64.1228C24.8488 63.8596 25.5512 64.1228 25.9024 64.8246C27.5707 68.6842 31.4341 71.1403 35.6488 71.1403C39.7756 71.1403 43.639 68.6842 45.3073 64.9123C45.5707 64.2105 46.361 63.9474 47.0634 64.2982C47.7658 64.5614 48.0292 65.3509 47.678 66.0526C45.4829 70.7018 40.7414 73.7719 35.561 73.7719Z" fill="#393936"/>
<path d="M93.8634 72.4561C91.4049 79.7368 86.0488 85.9649 77.2683 85.9649C67.6097 85.9649 62.078 80.1754 59.3561 73.3333C51.6292 75.9649 46.5366 82.1053 46.5366 90.614V98.2456H105.366V90.614C105.366 84.7368 103.698 76.4035 93.8634 72.4561Z" fill="#FF6F41"/>
<path d="M46.0976 99.1228C45.3952 99.1228 44.7805 98.5088 44.7805 97.807V90.9649C44.7805 76.3158 56.1073 72.193 61.4634 70.2632C65.6781 68.6842 68.4878 67.4561 68.4878 63.7719V63.5965C68.4878 62.8947 69.1025 62.2807 69.8049 62.2807C70.5074 62.2807 71.122 62.8947 71.122 63.5965V63.7719C71.122 69.5614 66.2927 71.3158 62.4293 72.7193C57.161 74.6491 47.4147 78.1579 47.4147 90.9649V97.807C47.4147 98.5088 46.8 99.1228 46.0976 99.1228Z" fill="#393936"/>
<path d="M106.683 100C105.981 100 105.366 99.386 105.366 98.6842V90.9649C105.366 78.1579 95.6195 74.6491 90.3513 72.7193C86.4878 71.3158 81.6586 69.5614 81.6586 63.7719V63.5965C81.6586 62.8947 82.2732 62.2807 82.9756 62.2807C83.6781 62.2807 84.2927 62.8947 84.2927 63.5965V63.7719C84.2927 67.4561 87.1025 68.7719 91.3171 70.2632C96.761 72.2807 108 76.4035 108 90.9649V98.6842C108 99.386 107.385 100 106.683 100Z" fill="#393936"/>
<path d="M60.1464 98.2456C59.4439 98.2456 58.8293 97.6316 58.8293 96.9298V91.6667C58.8293 90.9649 59.4439 90.3509 60.1464 90.3509C60.8488 90.3509 61.4634 90.9649 61.4634 91.6667V96.9298C61.4634 97.6316 60.8488 98.2456 60.1464 98.2456Z" fill="#393936"/>
<path d="M92.6341 98.2456C91.9317 98.2456 91.3171 97.6316 91.3171 96.9298V91.6667C91.3171 90.9649 91.9317 90.3509 92.6341 90.3509C93.3366 90.3509 93.9512 90.9649 93.9512 91.6667V96.9298C93.9512 97.6316 93.3366 98.2456 92.6341 98.2456Z" fill="#393936"/>
<path d="M76.2147 66.2281C68.9269 66.2281 59.7073 57.2807 59.7073 47.193V40.7895C59.7073 40.2631 60.0586 39.7368 60.5854 39.5614C60.6732 39.5614 70.3317 35.9649 75.161 29.0351C75.4244 28.6842 75.7756 28.5088 76.2147 28.5088C76.6537 28.5088 77.0049 28.6842 77.2683 29.0351C82.1854 35.2631 92.1073 39.6491 92.1951 39.6491C92.722 39.8245 92.9854 40.3509 92.9854 40.8772L92.722 47.2807C92.8098 57.2807 83.5025 66.2281 76.2147 66.2281ZM62.3415 41.6667V47.193C62.3415 55.614 70.1561 63.5965 76.2147 63.5965C82.2732 63.5965 90.0878 55.614 90.0878 47.193C90.0878 47.193 90.0878 47.193 90.0878 47.1052L90.3512 41.5789C87.8927 40.4386 80.8683 36.9298 76.3025 31.8421C71.7366 37.4561 64.8 40.614 62.3415 41.6667Z" fill="#393936"/>
<path d="M76.6536 83.1579C70.156 83.1579 64.4487 79.0351 62.2536 72.9825C61.9902 72.2807 62.3414 71.579 63.0438 71.3158C63.7463 71.0527 64.4487 71.4035 64.7121 72.1053C66.4682 77.1053 71.2975 80.5264 76.5658 80.5264C81.9219 80.5264 86.6633 77.1053 88.4194 72.1053C88.6828 71.4035 89.3853 71.0527 90.0877 71.3158C90.7902 71.579 91.1414 72.2807 90.878 72.9825C88.8585 79.1228 83.0633 83.1579 76.6536 83.1579Z" fill="#393936"/>
<path d="M50.8391 74.8245C50.3123 74.8245 49.8732 74.5614 49.6098 74.0351C48.4684 71.5789 48.4684 68.6842 49.522 66.0526C50.4879 63.6842 52.1562 61.7544 54.2635 60.5263C52.7708 58.3333 52.1562 55.7017 52.683 53.1579C52.9464 52.0175 53.2976 50.8772 53.7367 49.8245C54.0879 48.9474 54.3513 48.1579 54.6147 47.3684C55.2293 45 54.8781 43.2456 54.5269 41.2281C54.1757 39.2982 53.7367 37.0175 54.0879 33.9474C54.2635 32.2807 55.3171 27.0175 57.6001 24.8245C58.1269 24.2982 58.9171 24.2982 59.444 24.8245C59.9708 25.3509 59.9708 26.1403 59.444 26.6667C58.1269 27.9824 56.9854 32.0175 56.722 34.2105C56.3708 36.9298 56.722 38.8596 57.0732 40.7017C57.5123 42.807 57.8635 45 57.1611 47.8947C56.8976 48.8596 56.5464 49.8245 56.1952 50.7017C55.844 51.6667 55.405 52.6316 55.2293 53.5088C54.7903 55.7895 55.5806 58.1579 57.2489 59.9123C57.6001 60.2631 57.6879 60.7017 57.6001 61.1403C57.5123 61.5789 57.1611 61.9298 56.8098 62.1052C54.6147 62.9824 52.8586 64.7368 51.9806 66.9298C51.1903 68.9474 51.1903 71.0526 52.0684 72.8947C52.4196 73.5088 52.0684 74.2982 51.4537 74.6491C51.1903 74.8245 51.0147 74.8245 50.8391 74.8245Z" fill="#393936"/>
<path d="M102.732 74.8246C102.556 74.8246 102.381 74.8246 102.205 74.7369C101.59 74.386 101.239 73.6842 101.59 72.9825C102.381 71.2281 102.468 69.0351 101.678 67.0176C100.8 64.8246 99.044 63.0702 96.8488 62.193C96.4098 62.0176 96.1464 61.6667 96.0586 61.2281C95.9708 60.7895 96.0586 60.3509 96.4098 60C98.0781 58.3334 98.8683 55.8772 98.4293 53.5965C98.2537 52.6316 97.9025 51.7544 97.4635 50.7895C97.1122 49.9123 96.761 48.9474 96.4976 47.9825C95.7952 45 96.1464 42.8948 96.5854 40.7895C96.9366 38.9474 97.2879 37.0176 96.9366 34.2983C96.5854 31.6667 94.3025 18.4211 80.2537 17.4562C79.5513 17.3684 78.9366 16.7544 79.0244 16.0527C79.1122 15.3509 79.7269 14.8246 80.4293 14.8246C96.4976 15.8772 99.1318 30.9649 99.5708 33.9474C99.922 37.1053 99.5708 39.2983 99.1318 41.2281C98.7805 43.2456 98.4293 44.9123 99.044 47.3684C99.2196 48.1579 99.5708 48.9474 99.922 49.8246C100.361 50.8772 100.8 51.9298 100.976 53.1579C101.415 55.7018 100.8 58.3334 99.3952 60.5263C101.502 61.7544 103.171 63.6842 104.137 66.0527C105.19 68.772 105.19 71.6667 104.049 74.0351C103.698 74.5614 103.259 74.8246 102.732 74.8246Z" fill="#393936"/>
<path d="M76.5659 54.386H75.9512C75.2488 54.386 74.6342 53.7719 74.6342 53.0702C74.6342 52.3684 75.2488 51.7544 75.9512 51.7544H76.5659C77.0049 51.7544 77.2683 51.4035 77.2683 51.0526V45.5263C77.2683 42.193 78.761 40.8772 80.0781 40.3509C80.9561 40 82.0098 40 83.0634 40.2632L84.9073 40.7895C85.6098 40.9649 86.0488 41.7544 85.7854 42.4562C85.6098 43.1579 84.8195 43.5965 84.1171 43.3334L82.2732 42.807C81.8341 42.6316 81.3951 42.6316 81.0439 42.807C80.3415 43.0702 79.9024 44.0351 79.9024 45.5263V51.0526C79.9024 52.8948 78.4098 54.386 76.5659 54.386Z" fill="#393936"/>
<path d="M70.6829 46.7544C71.4103 46.7544 72 46.1653 72 45.4386C72 44.7119 71.4103 44.1228 70.6829 44.1228C69.9555 44.1228 69.3658 44.7119 69.3658 45.4386C69.3658 46.1653 69.9555 46.7544 70.6829 46.7544Z" fill="#393936"/>
<path d="M84.2048 46.7544C84.9322 46.7544 85.5219 46.1653 85.5219 45.4386C85.5219 44.7119 84.9322 44.1228 84.2048 44.1228C83.4774 44.1228 82.8878 44.7119 82.8878 45.4386C82.8878 46.1653 83.4774 46.7544 84.2048 46.7544Z" fill="#393936"/>
<path d="M69.2781 43.5965C68.6635 43.5965 68.1366 43.1579 67.961 42.6316C67.7854 41.9298 68.2244 41.228 68.9269 41.0526L71.9122 40.3508C72.6147 40.1754 73.3171 40.614 73.4927 41.3158C73.6683 42.0175 73.2293 42.7193 72.5269 42.8947L69.5415 43.5965C69.5415 43.5087 69.3659 43.5965 69.2781 43.5965Z" fill="#393936"/>
<path d="M73.4927 59.386C72.9659 59.386 72.439 59.0351 72.2634 58.5088C72 57.807 72.439 57.1053 73.1415 56.8421C75.6 56.0526 78.1464 56.0526 80.6049 56.8421C81.3073 57.1053 81.6586 57.807 81.4829 58.5088C81.2195 59.2105 80.5171 59.5614 79.8146 59.386C77.7951 58.7719 75.9512 58.7719 74.0195 59.386C73.7561 59.2982 73.5805 59.386 73.4927 59.386Z" fill="#393936"/>
<path d="M69.1903 0H46.7122C42.761 0 39.5122 3.24561 39.5122 7.19298V15.5263C39.5122 19.5614 42.761 22.7193 46.7122 22.7193H47.4146L47.8537 29.6491L54.5268 22.7193H69.1903C73.2293 22.7193 76.3903 19.4737 76.3903 15.5263V7.19298C76.3903 3.24561 73.1415 0 69.1903 0Z" fill="#FF6F41"/>
<path d="M52.2439 13.1579C52.9713 13.1579 53.561 12.5688 53.561 11.8421C53.561 11.1154 52.9713 10.5263 52.2439 10.5263C51.5165 10.5263 50.9268 11.1154 50.9268 11.8421C50.9268 12.5688 51.5165 13.1579 52.2439 13.1579Z" fill="#393936"/>
<path d="M58.3903 13.1579C59.1177 13.1579 59.7073 12.5688 59.7073 11.8421C59.7073 11.1154 59.1177 10.5263 58.3903 10.5263C57.6629 10.5263 57.0732 11.1154 57.0732 11.8421C57.0732 12.5688 57.6629 13.1579 58.3903 13.1579Z" fill="#393936"/>
<path d="M64.5366 13.1579C65.264 13.1579 65.8536 12.5688 65.8536 11.8421C65.8536 11.1154 65.264 10.5263 64.5366 10.5263C63.8092 10.5263 63.2195 11.1154 63.2195 11.8421C63.2195 12.5688 63.8092 13.1579 64.5366 13.1579Z" fill="#393936"/>
<path d="M106.683 100H1.31707C0.614634 100 0 99.386 0 98.6842C0 97.9824 0.614634 97.3684 1.31707 97.3684H106.683C107.385 97.3684 108 97.9824 108 98.6842C108 99.386 107.385 100 106.683 100Z" fill="#393936"/>
</svg>
