<svg width="106" height="100" viewBox="0 0 106 100" fill="none" xmlns="http://www.w3.org/2000/svg">
<g clip-path="url(#clip0_119_955)">
<path d="M100.594 76.7736C100.341 76.7736 100.003 76.6891 99.7497 76.4357C98.7362 75.5067 97.8071 74.2398 97.1314 72.7195C94.9354 73.1418 92.7393 73.0574 90.7967 72.7195C90.121 72.5506 89.6987 71.9594 89.7832 71.1993C89.9521 70.5236 90.6278 70.1013 91.3035 70.1857C92.8238 70.4391 94.5131 70.5236 96.2868 70.2702C95.2732 66.7229 95.3577 62.7533 97.3003 60.4729C98.3983 59.206 99.9186 58.6993 101.608 59.0371C103.551 59.3749 105.155 60.8107 105.831 62.6688C106.253 63.8513 106.507 66.3006 103.973 69.1722C102.79 70.4391 101.354 71.3682 99.7497 71.9594C100.256 72.9729 100.848 73.8175 101.608 74.4087C102.115 74.831 102.199 75.6756 101.777 76.1824C101.27 76.6047 100.932 76.7736 100.594 76.7736ZM100.594 61.5709C100.172 61.5709 99.5808 61.7398 99.1585 62.2466C97.8071 63.8513 97.8071 66.9763 98.6517 69.7634C99.9186 69.2567 101.101 68.581 101.946 67.5675C103.213 66.1317 103.719 64.7803 103.297 63.5134C102.959 62.5844 102.03 61.7398 101.017 61.5709C100.932 61.5709 100.763 61.5709 100.594 61.5709Z" fill="#393936"/>
<path d="M65.3736 65.5402L58.1099 71.8747L59.7991 78.4625C56.5051 80.1517 50.2549 84.4592 50.2549 84.4592L59.5457 87.4152L61.235 95.6923L66.5561 98.3105L70.7792 86.4017C85.3067 83.699 89.023 75.0842 89.9521 72.8038C94.5131 61.7396 89.5298 47.5504 72.8907 38.6821L74.9178 45.3544L66.0493 52.6179L65.3736 65.5402Z" fill="#FF6F41"/>
<path d="M66.7252 99.9997C66.5563 99.9997 66.3029 99.9152 66.134 99.8307L60.5595 97.0436C60.1372 96.8747 59.8838 96.4524 59.8838 96.0301L58.9547 87.922C55.4917 87.4152 52.0288 86.5706 48.7348 85.2193C48.3125 85.0503 47.9746 84.628 47.9746 84.1213C47.9746 83.6145 48.1435 83.1922 48.5658 82.9388L58.1945 77.1956L56.5053 72.2125C56.3364 71.7057 56.5053 71.1145 56.9276 70.7767L64.3603 65.1179L64.6137 51.8578C64.6137 51.5199 64.7826 51.0976 65.1204 50.9287L73.0599 44.5942L70.1037 32.8544C70.0192 32.3476 70.1882 31.8409 70.526 31.5875C70.9483 31.2497 71.4551 31.2497 71.8774 31.4186C89.6989 40.2024 98.3985 59.2057 91.2192 73.7328C90.2057 75.8443 89.1077 77.449 87.7563 78.9692C83.5332 83.5301 77.283 86.824 70.9483 88.0064L67.9921 99.0706C67.9077 99.4084 67.6543 99.7463 67.3164 99.9152C67.0631 99.9997 66.8941 99.9997 66.7252 99.9997ZM62.2487 95.1855L65.7961 96.9591L68.5834 86.5706C68.7523 86.0639 69.0901 85.726 69.5969 85.6416C75.6782 84.7125 81.7595 81.5875 85.8137 77.2801C86.9961 75.9287 87.9252 74.4929 88.8543 72.6348C95.1045 60.0503 88.0941 43.6652 73.1443 35.0503L75.5093 45.0165C75.5937 45.5233 75.4248 46.0301 75.087 46.2834L66.9786 52.7024L66.7252 66.047C66.7252 66.4692 66.5563 66.8071 66.2184 67.0605L59.1236 72.4659L60.8129 77.5334C60.9818 78.1247 60.8129 78.7159 60.2216 79.0537L52.0288 83.9524C54.7316 84.797 57.4344 85.3882 60.1372 85.726C60.7284 85.8105 61.1507 86.2328 61.2352 86.824L62.2487 95.1855Z" fill="#393936"/>
<path d="M27.2813 31.3345C25.1698 33.1926 21.369 35.8108 19.8487 37.5845L10.9801 38.598L15.2032 45.5237C13.8518 48.8176 12.5849 54.0541 12.9228 58.9527C13.0917 61.4865 12.3315 64.527 10.8112 65.4561C8.27734 66.9764 7.51718 65.7095 5.82794 65.8784C2.87177 66.1318 1.60483 67.652 2.87177 69.848L7.77057 77.7027L11.7403 77.027C13.2606 76.6047 14.9499 73.3953 14.9499 73.3953H16.3857C20.8622 77.3649 26.6056 79.1385 33.1937 79.7297L37.0789 91.2162L42.7379 87.8378L42.4001 79.6453C46.5387 78.9696 49.4104 78.2095 53.4646 76.098L44.5961 69.848L45.4407 54.5608L30.9132 47.2129L33.8694 33.1081L27.2813 31.3345Z" fill="#FF6F41"/>
<path d="M53.5489 76.6888C53.2955 76.6888 53.1266 76.6044 52.8732 76.5199L43.4979 70.9456C43.0756 70.6922 42.8222 70.1854 42.9066 69.6787L44.5114 54.8983L30.4062 47.8881C29.8995 47.6348 29.5616 47.0435 29.7305 46.4523L32.7712 34.0368L22.0445 30.3206C21.3688 30.0672 21.0309 29.3915 21.2843 28.7158C21.5377 28.0402 22.2134 27.7023 22.8891 27.9557L34.7138 32.0942C35.305 32.3476 35.6429 32.9388 35.5584 33.6145L32.5178 46.1989L46.454 53.0402C46.9608 53.2935 47.2142 53.8003 47.1297 54.3071L45.525 69.2564L54.2246 74.3239C54.8158 74.6618 55.0692 75.4219 54.6469 76.0976C54.3935 76.5199 53.9712 76.6888 53.5489 76.6888Z" fill="#393936"/>
<path d="M18.0344 55.3053C18.6732 54.9194 18.8783 54.0887 18.4925 53.4499C18.1066 52.811 17.2759 52.6059 16.637 52.9918C15.9981 53.3776 15.793 54.2083 16.1789 54.8472C16.5648 55.486 17.3955 55.6911 18.0344 55.3053Z" fill="#393936"/>
<path d="M37.2478 92.6519C37.0789 92.6519 36.9944 92.6519 36.8255 92.5675C36.4876 92.3985 36.1498 92.1452 36.0653 91.8073L32.1801 80.9965C25.8454 80.4053 20.2709 78.2094 15.9633 74.5776L15.3721 74.9154C14.9498 76.2668 14.1052 77.4492 12.8382 78.1249C10.1355 79.8141 6.6725 78.9695 5.06772 76.2668L0.844616 69.2566C-0.760165 66.5539 0.0844567 63.0066 2.78725 61.4019C4.30756 60.4729 6.16573 60.3039 7.77051 60.9796C6.6725 55.8276 7.17928 50.1688 9.20637 44.6789L2.28047 35.135C2.02709 34.7127 1.94262 34.2904 2.19601 33.8681C2.36494 33.4458 2.87171 33.1925 3.29402 33.1925L16.5546 32.9391C18.0749 31.2499 19.7641 29.6452 21.5378 28.2094C22.0446 27.7871 22.8892 27.8715 23.3116 28.3783C23.7339 28.885 23.6494 29.7296 23.1426 30.1519C21.2845 31.5877 19.5952 33.2769 18.0749 34.9661C17.8215 35.2195 17.4837 35.3884 17.1458 35.3884L5.74342 35.6418L11.6558 43.8344C11.9092 44.1722 11.9936 44.6789 11.8247 45.0168C9.62868 50.5911 9.12191 56.1654 10.4733 61.3175C10.6422 61.8242 10.3888 62.4154 9.88207 62.7533L8.53067 63.5979C8.10836 63.8512 7.68605 63.8512 7.26374 63.5979C6.25019 63.0911 5.06772 63.0911 4.05418 63.6823C2.53386 64.6114 2.11155 66.5539 2.95617 68.0742L7.17928 74.9999C8.10836 76.5202 10.051 76.9425 11.5713 76.0979C12.3315 75.6756 12.8382 74.831 13.0072 73.9864C13.0916 73.6485 13.2606 73.3107 13.5984 73.1418L15.4566 72.0438C15.9633 71.7904 16.5546 71.7904 16.9769 72.2127C21.2 76.0134 26.7745 78.2094 33.1936 78.7161C33.7004 78.7161 34.1227 79.0539 34.2916 79.5607L37.9235 89.6958L41.0486 87.7533L41.302 79.3073C41.302 78.7161 41.7243 78.2094 42.3155 78.1249C46.0319 77.3648 49.7482 76.0979 52.9578 74.4931C53.549 74.1553 54.3092 74.4087 54.647 75.0844C54.9849 75.6756 54.7315 76.4357 54.0558 76.7735C50.9307 78.3783 47.2988 79.6452 43.7514 80.4053L43.498 88.5134C43.498 88.9357 43.2446 89.358 42.9068 89.5269L37.839 92.5675C37.6701 92.5675 37.5012 92.6519 37.2478 92.6519Z" fill="#393936"/>
<path d="M28.4638 1.2666L21.7068 14.02L37.0789 20.27L36.4032 5.74295L28.4638 1.2666Z" fill="#FF6F41"/>
<path d="M42.9912 21.537C42.8222 21.537 42.6533 21.537 42.4844 21.4525L27.1123 15.2025C26.7744 15.0336 26.521 14.7802 26.4366 14.4424C26.3521 14.1046 26.3521 13.7667 26.521 13.4289L33.278 0.675502C33.4469 0.337665 33.7003 0.168746 34.0382 0.0842862C34.376 -0.00017331 34.7139 -0.00017331 35.0517 0.168746L42.9912 4.6451C43.4135 4.89848 43.5824 5.23631 43.6669 5.65861L44.3426 20.1856C44.3426 20.6079 44.1736 21.0302 43.8358 21.2836C43.4979 21.4525 43.2446 21.537 42.9912 21.537ZM29.3928 13.3444L41.6398 18.3275L41.133 6.5032L34.9673 3.04037L29.3928 13.3444Z" fill="#393936"/>
<path d="M63.0087 38.6822C62.8397 38.6822 62.6708 38.6822 62.5019 38.5978C61.8262 38.3444 61.5728 37.5843 61.9106 36.9086L65.8804 28.1248L57.6031 25.1687C56.9274 24.9153 56.5895 24.2397 56.8429 23.564C57.0963 22.8883 57.772 22.5505 58.4477 22.8039L67.9919 26.1822C68.3298 26.2667 68.5832 26.5201 68.7521 26.8579C68.921 27.1957 68.921 27.5336 68.7521 27.8714L64.1911 37.9221C63.9377 38.3444 63.5154 38.6822 63.0087 38.6822Z" fill="#393936"/>
<path d="M55.2382 32.3479L42.9912 30.7432L40.6262 41.3006L55.2382 32.3479Z" fill="#FF6F41"/>
<path d="M56.0829 45.1011L49.4949 51.9423L60.8973 58.1078L56.0829 45.1011Z" fill="#FF6F41"/>
<path d="M84.8 29.476C84.5466 29.476 84.2932 29.476 84.0398 29.3915C83.702 29.3071 83.4486 29.1382 83.2797 28.8848L74.8335 17.0605C74.5801 16.7226 74.4956 16.2159 74.6645 15.7936C74.8335 15.3713 75.1713 15.1179 75.6781 15.0334L87.5028 13.3442C87.7562 13.3442 88.094 13.3442 88.3474 13.5132C91.557 15.3713 92.5705 19.3409 90.8813 23.6483C89.7833 26.6044 87.5028 29.476 84.8 29.476ZM78.1275 17.3138L84.9689 26.9422C86.1514 26.7733 87.6717 24.9996 88.5163 22.8882C89.361 20.5233 89.5299 17.5672 87.4183 16.0469L78.1275 17.3138Z" fill="#393936"/>
</g>
<defs>
<clipPath id="clip0_119_955">
<rect width="106" height="100" fill="white"/>
</clipPath>
</defs>
</svg>
