<svg width="107" height="100" viewBox="0 0 107 100" fill="none" xmlns="http://www.w3.org/2000/svg">
<g clip-path="url(#clip0_119_1089)">
<path d="M57.8054 24.061H55.7592H46.7218L41.9473 35.1532H51.9226L51.07 50.5115L62.1536 30.0337H55.3329L57.8054 24.061Z" fill="#FF6F41"/>
<path d="M38.4519 26.6209C34.6152 26.5356 30.7786 23.7199 30.7786 19.0271C30.7786 17.2353 31.5459 15.5288 32.91 14.1636C34.4447 12.7131 36.4909 11.7745 38.7929 11.6039C39.2192 7.93492 40.6686 5.03389 43.0559 2.98611C45.6136 0.76768 49.1945 -0.341536 52.8606 -0.000238672C58.8288 0.511707 63.2622 4.01 64.5411 9.21478C66.5021 9.12945 68.463 9.6414 70.2535 10.9213C71.8734 11.9452 73.408 14.3342 73.8343 16.2114C74.4312 19.1124 73.9196 21.7574 72.2997 23.8052C70.765 25.6824 68.5483 26.7062 65.9053 26.7062H38.4519V26.6209ZM39.7308 14.1636C37.6845 14.1636 35.8941 14.8462 34.7005 16.0407C33.7626 16.894 33.3363 18.0032 33.3363 19.0271C33.3363 22.2694 35.9794 24.0612 38.5371 24.0612H65.9053C67.781 24.0612 69.3156 23.3786 70.3387 22.0987C71.4471 20.7335 71.7881 18.7711 71.3618 16.7233C71.1061 15.4434 69.9124 13.737 68.8893 13.0544C67.2694 11.9452 65.5642 11.6039 63.859 11.9452C63.518 12.0305 63.177 11.9452 62.8359 11.7745C62.5802 11.6039 62.3244 11.2626 62.3244 10.9213C61.6423 6.14311 57.9762 2.98611 52.6901 2.55949C51.2407 2.47416 47.6598 2.47416 44.761 4.94857C42.7148 6.74038 41.5212 9.47075 41.2654 12.969C41.1802 13.6516 40.6686 14.1636 39.9865 14.1636C39.9013 14.1636 39.816 14.1636 39.7308 14.1636Z" fill="#393936"/>
<path d="M26.345 51.7063C25.9187 51.7063 25.4925 51.5356 25.3219 51.1943C24.8956 50.5971 25.0662 49.8291 25.5777 49.4878C25.7482 49.3172 27.5387 48.1226 30.267 49.1465C30.949 49.4025 31.2901 50.1704 31.0343 50.7677C30.7785 51.4503 30.0112 51.7916 29.4144 51.5356C27.965 51.0237 27.1124 51.5356 27.1124 51.5356C26.8566 51.6209 26.6008 51.7063 26.345 51.7063Z" fill="#393936"/>
<path d="M27.7168 41.4551C27.75 40.749 27.205 40.1497 26.4994 40.1165C25.7939 40.0833 25.1951 40.6288 25.1619 41.3348C25.1287 42.0409 25.6738 42.6402 26.3793 42.6734C27.0848 42.7066 27.6837 42.1611 27.7168 41.4551Z" fill="#393936"/>
<path d="M28.3911 39.8464C28.2206 39.8464 28.05 39.8464 27.8795 39.7611L25.066 38.5665C24.3839 38.3106 24.1281 37.5426 24.3839 36.86C24.6397 36.1774 25.407 35.9215 26.0891 36.1774L28.9026 37.372C29.5847 37.628 29.8405 38.3959 29.5847 39.0785C29.3289 39.5051 28.8174 39.8464 28.3911 39.8464Z" fill="#393936"/>
<path d="M11.0836 56.4844C7.33222 60.068 0.852539 67.6619 0.852539 75.6823L1.70513 99.1465H34.9561L34.7856 88.8223C34.7856 88.8223 29.9258 87.8837 29.8406 87.2011C29.7553 85.1533 31.5458 68.4298 24.7251 62.4571C17.9043 65.87 12.7888 59.0441 11.0836 56.4844Z" fill="#FF6F41"/>
<path d="M30.2668 88.0543C29.5848 88.0543 28.988 87.457 28.988 86.7744V84.7266C28.988 74.1464 27.6238 69.6243 26.5154 67.6618C25.4071 65.7847 24.5545 64.6754 23.7872 63.7369C22.8493 62.5423 22.1672 61.6891 22.1672 60.3239V56.0577C22.1672 55.3751 22.764 54.7778 23.4461 54.7778C24.1282 54.7778 24.725 55.3751 24.725 56.0577V60.3239C24.725 60.7505 24.9808 61.1772 25.8334 62.201C26.6007 63.1396 27.6238 64.4195 28.7322 66.4673C30.6079 69.7096 31.5457 75.8529 31.5457 84.812V86.8597C31.5457 87.5423 30.9489 88.0543 30.2668 88.0543Z" fill="#393936"/>
<path d="M1.27888 99.1467C0.596813 99.1467 0 98.5494 0 97.8668V75.3412C0 70.1364 2.21673 64.8463 6.6502 59.8975C6.90598 59.5562 7.24701 59.3003 7.50279 58.959C9.80478 56.4846 11.7657 54.2661 11.0837 50.3412C10.9984 49.6586 11.4247 48.976 12.1068 48.8907C12.7888 48.8054 13.4709 49.232 13.5562 49.9146C14.4088 55.1194 11.6805 58.0204 9.29323 60.6654C9.03745 61.0067 8.78167 61.2627 8.44064 61.604C4.60398 66.1262 2.55777 70.7337 2.55777 75.3412V97.8668C2.55777 98.6347 1.96096 99.1467 1.27888 99.1467Z" fill="#393936"/>
<path d="M24.8957 57.0817C24.7252 57.0817 24.6399 57.0817 24.4694 57.0817C21.7411 56.9964 19.3539 55.9725 17.9045 54.4367C17.3929 53.9247 17.4782 53.0715 17.9897 52.6448C18.5013 52.1329 19.3539 52.2182 19.7802 52.7302C20.8033 53.8394 22.5937 54.522 24.5547 54.6073C26.1746 54.6926 27.283 54.266 27.5387 54.01C28.1356 53.4128 28.5618 51.365 28.6471 50.2558V50.1704L29.0734 47.5254C29.1587 47.0134 29.4997 46.6721 29.926 46.5015C29.926 46.5015 30.5228 46.2455 31.5459 45.4776C31.3754 45.051 31.0344 44.3684 30.7786 43.8564C29.7555 41.638 29.0734 40.0169 29.0734 38.8223V38.0544C29.1587 37.0305 29.2439 35.7506 29.1587 34.5561C29.0734 33.8735 29.6702 33.2762 30.3523 33.1909C31.0344 33.1909 31.6312 33.7029 31.7164 34.3855C31.8017 35.7506 31.7164 37.1158 31.6312 38.225V38.993C31.6312 39.6756 32.569 41.7233 33.0806 42.8326C34.1889 45.1363 34.6152 46.1602 33.7626 47.0134C32.8248 47.8667 32.0575 48.3786 31.5459 48.6346L31.1196 50.3411C31.0344 51.109 30.7786 54.3513 29.2439 55.8018C28.3913 56.5698 26.7714 57.0817 24.8957 57.0817Z" fill="#393936"/>
<path d="M15.773 42.8324C15.6878 42.8324 15.6025 42.8324 15.432 42.8324C12.9595 42.2352 11.9364 39.4195 12.5332 37.1157C13.13 34.7266 15.5172 33.2761 17.9045 33.8734C18.5013 34.044 19.2686 34.3853 20.036 34.9826C20.5475 33.7027 21.0591 33.0202 21.4001 32.5082L21.5706 32.3376C21.9969 31.7403 22.7643 31.5696 23.3611 31.9963C23.9579 32.4229 24.1284 33.1908 23.7021 33.7881L23.5316 34.044C23.1053 34.7266 22.4232 35.6652 21.7411 38.0543C21.5706 38.5662 21.1443 38.9075 20.6328 38.9929C20.1212 39.0782 19.6097 38.7369 19.3539 38.3103C18.7571 37.1157 17.8192 36.6038 17.3077 36.4331C16.2846 36.1772 15.2615 36.7744 15.0057 37.7983C14.7499 38.8222 15.1762 40.1874 16.0288 40.4434C16.7109 40.614 17.1372 41.2966 16.9666 41.9792C16.8814 42.4911 16.3698 42.8324 15.773 42.8324Z" fill="#393936"/>
<path d="M12.3625 51.365C12.1919 51.365 11.9362 51.2797 11.7656 51.1943C7.58796 49.0612 4.68916 40.6995 5.79752 33.8735C7.07641 26.1943 12.0214 23.6346 14.835 22.7814C20.8884 20.9042 27.2828 25.0851 27.9648 25.5971C28.5617 26.0237 29.2437 26.5356 29.9258 26.9623C31.2047 27.9008 32.6541 29.01 33.4214 29.1807C33.7625 29.266 34.1035 29.522 34.274 29.8633C34.4445 30.2046 34.4445 30.6312 34.274 30.9725C32.5688 34.4708 28.2206 35.6653 22.3378 34.2148C21.6557 34.0442 21.2294 33.3616 21.3999 32.679C21.5704 31.9964 22.2525 31.5698 22.9346 31.7404C25.3218 32.3377 29.1585 32.9349 31.1194 30.9725C30.2668 30.4605 29.329 29.778 28.3911 29.0954C27.7943 28.6687 27.1123 28.1568 26.5154 27.7302C24.2987 26.2797 19.5242 24.0612 15.6023 25.2558C13.3856 25.9384 9.46366 28.0715 8.35529 34.3855C7.33218 40.2728 9.71943 46.2455 12.0214 48.3786C12.9593 46.8428 14.4087 43.8565 14.4087 41.5527C14.4087 40.8701 15.0055 40.2728 15.6876 40.2728C16.3696 40.2728 16.9664 40.8701 16.9664 41.5527C16.9664 45.307 14.3234 49.8291 13.2151 51.0237C13.0445 51.2797 12.7035 51.365 12.3625 51.365Z" fill="#393936"/>
<path d="M21.059 64.9316C20.0359 64.9316 18.9275 64.7609 17.7339 64.3343C12.1921 62.3718 10.8279 56.6551 10.7427 56.3991C10.5722 55.7166 10.9985 55.034 11.6805 54.8633C12.3626 54.6927 13.0447 55.1193 13.2152 55.8019C13.2152 55.8872 14.3236 60.4947 18.5012 61.9452C20.2917 62.5425 22.1674 62.5425 23.6168 61.7746C24.2136 61.4333 24.9809 61.7746 25.322 62.3718C25.663 62.9691 25.322 63.737 24.7251 64.0783C24.0431 64.5049 22.7642 64.9316 21.059 64.9316Z" fill="#393936"/>
<path d="M35.3824 99.1466H11.5099C8.61105 99.0613 5.96802 96.0749 5.96802 92.7473C5.96802 92.0647 6.56483 91.4674 7.2469 91.4674C7.92897 91.4674 8.52579 92.0647 8.52579 92.7473C8.52579 94.6244 10.0604 96.5869 11.5099 96.5869H34.1035V89.761H19.1832C18.5011 89.761 17.9043 89.1637 17.9043 88.4811V73.1227C17.9043 71.7575 17.1369 70.2217 16.0286 69.2831C15.0907 68.5152 14.0676 68.1739 13.0445 68.4299H12.9593C12.2772 68.6005 11.5951 68.0886 11.4246 67.406C11.2541 66.7234 11.7656 66.0408 12.4477 65.8702H12.533C14.2381 65.5289 16.1138 66.0408 17.6485 67.3207C19.4389 68.7712 20.462 70.9896 20.462 73.1227V87.2012H35.3824C36.0644 87.2012 36.6612 87.7985 36.6612 88.4811V97.8668C36.6612 98.6347 36.0644 99.1466 35.3824 99.1466Z" fill="#393936"/>
<path d="M44.0789 99.9996C43.9936 99.9996 43.9083 99.9996 43.8231 99.9996H41.3506C39.8159 99.9143 38.4518 99.8289 37.0024 98.8904L35.1267 97.6105C34.5299 97.1839 34.3593 96.416 34.7856 95.8187C35.2119 95.2214 35.9793 95.0508 36.5761 95.4774L38.4518 96.7573C39.3044 97.3545 40.0717 97.3545 41.4358 97.4399H43.9083C44.4199 97.4399 45.1872 97.3545 46.0398 96.5013V92.747C46.0398 92.5764 45.784 91.9791 45.2725 91.6378L45.1872 91.5525L43.9083 92.8324C43.6526 93.0883 43.3115 93.1736 42.9705 93.1736H41.2653C40.5832 93.1736 39.9864 92.5764 39.9864 91.8938C39.9864 91.2112 40.5832 90.6139 41.2653 90.6139H42.4589L43.8231 89.2487C43.9936 89.0781 44.2494 88.9074 44.5904 88.9074C45.443 88.8221 46.2956 89.0781 47.0629 89.7607C47.9155 90.5286 48.5976 91.8085 48.5976 92.747V97.0132C48.5976 97.3545 48.5123 97.6105 48.2565 97.8665C47.0629 99.317 45.6135 99.9996 44.0789 99.9996Z" fill="#393936"/>
<path d="M35.8088 91.2113C35.3825 91.2113 34.9562 90.9553 34.7004 90.614C34.3594 90.0167 34.5299 89.2488 35.1267 88.8222L38.9634 86.6038C39.1339 86.5184 39.3897 86.4331 39.6454 86.4331H42.2032C42.5442 86.4331 42.8853 86.6037 43.1411 86.7744L44.8462 88.4809C45.3578 88.9928 45.3578 89.7607 44.8462 90.2727C44.3347 90.7846 43.5674 90.7846 43.0558 90.2727L41.6917 88.9075H39.9865L36.4909 90.9553C36.2351 91.1259 36.0646 91.2113 35.8088 91.2113Z" fill="#393936"/>
<path d="M80.655 51.7061C80.3992 51.7061 80.1434 51.6208 79.9729 51.4502C79.8876 51.4502 79.0351 50.9382 77.6709 51.4502C76.9888 51.7061 76.3068 51.3648 76.051 50.6823C75.7952 49.9997 76.1362 49.3171 76.8183 49.0611C79.5466 48.0372 81.337 49.2317 81.5076 49.4024C82.1044 49.829 82.1896 50.5969 81.7633 51.1942C81.4223 51.5355 81.0813 51.7061 80.655 51.7061Z" fill="#393936"/>
<path d="M80.6301 42.6599C81.3356 42.6267 81.8806 42.0274 81.8475 41.3213C81.8143 40.6152 81.2154 40.0698 80.5099 40.103C79.8044 40.1362 79.2593 40.7355 79.2925 41.4415C79.3257 42.1476 79.9245 42.6931 80.6301 42.6599Z" fill="#393936"/>
<path d="M78.6088 39.8464C78.0972 39.8464 77.6709 39.5904 77.4152 39.0785C77.1594 38.3959 77.4152 37.7133 78.0972 37.372L80.9108 36.1774C81.5929 35.9215 82.2749 36.1774 82.616 36.86C82.8717 37.5426 82.616 38.2252 81.9339 38.5665L79.1203 39.7611C78.9498 39.7611 78.7793 39.8464 78.6088 39.8464Z" fill="#393936"/>
<path d="M95.4901 56.4844C99.2415 59.9827 105.721 67.2352 105.721 75.2557V99.1465H72.4702V88.0543H78.4383C79.8025 86.5185 75.6248 78.0714 75.8806 75.2557C76.2216 71.7574 84.3212 63.3103 85.2591 63.3103C86.9642 63.3103 92.0798 62.4571 95.4901 56.4844Z" fill="#FF6F41"/>
<path d="M78.4384 88.0542C77.7563 88.0542 77.1595 87.4569 77.1595 86.7743V84.7265C77.1595 84.1293 76.648 83.1054 76.1364 82.0815C74.8575 79.5217 73.1523 76.1088 75.1986 72.4398C76.3069 70.4774 78.0974 68.6856 79.8878 66.9791C82.0193 64.9313 83.9802 62.9688 84.4065 60.9211V55.9722C84.4065 55.2897 85.0033 54.6924 85.6854 54.6924C86.3675 54.6924 86.9643 55.2897 86.9643 55.9722V61.0917C86.9643 61.177 86.9643 61.2624 86.9643 61.3477C86.3675 64.1634 83.9802 66.5525 81.6782 68.8562C80.0583 70.392 78.4384 72.0132 77.5005 73.7197C76.1364 76.1088 77.33 78.5832 78.5237 80.8869C79.2057 82.2521 79.8025 83.532 79.8025 84.7265V86.7743C79.7173 87.5422 79.1205 88.0542 78.4384 88.0542Z" fill="#393936"/>
<path d="M105.721 99.1463C105.039 99.1463 104.442 98.5491 104.442 97.8665V75.3409C104.442 70.7334 102.396 66.0405 98.3889 61.5184C98.1331 61.1771 97.8774 60.9211 97.5363 60.5798C95.1491 57.9347 92.4208 55.0337 93.2734 49.8289C93.3586 49.1463 94.0407 48.6344 94.7228 48.805C95.4049 48.8904 95.9164 49.573 95.7459 50.2556C95.0638 54.1805 97.0248 56.3989 99.3268 58.8733C99.5825 59.2146 99.9236 59.4706 100.179 59.8119C104.613 64.846 106.83 70.0508 106.83 75.3409V97.8665C107 98.6344 106.403 99.1463 105.721 99.1463Z" fill="#393936"/>
<path d="M80.3991 56.6552C79.1202 56.6552 78.2676 56.3992 77.6708 55.8019C76.2214 54.4368 75.8804 51.3651 75.7951 50.5118L75.113 48.2081C74.9425 48.0374 74.6015 47.6108 73.6636 46.8429C72.7258 45.9897 73.3226 44.9658 73.9194 44.0272C74.6015 42.8327 75.6246 40.9555 75.3688 38.9931V38.3958C75.1983 37.2013 74.9425 35.3241 75.0278 33.7883C75.113 33.1057 75.7098 32.5938 76.3919 32.5938C77.074 32.6791 77.6708 33.2763 77.5855 33.9589C77.5003 35.2388 77.7561 36.9453 77.9266 38.0545L78.0118 38.4811C78.3529 41.2968 77.074 43.6859 76.2214 45.1364C76.1361 45.2217 76.1361 45.3071 76.0509 45.3924C76.6477 45.9043 77.2445 46.5016 77.415 46.8429C77.5003 46.9282 77.5003 47.0135 77.5855 47.0989L78.4381 49.7439C78.4381 49.8292 78.5234 49.9146 78.5234 50.0852C78.6086 51.2798 78.9497 53.3275 79.6318 53.8395C79.717 53.9248 80.9959 54.6074 87.9019 52.2183C88.5839 51.9623 89.266 52.3036 89.5218 52.9862C89.7776 53.6688 89.4365 54.3514 88.7545 54.6074C84.9178 55.9726 82.2748 56.6552 80.3991 56.6552Z" fill="#393936"/>
<path d="M91.2271 42.8326C90.6303 42.8326 90.1187 42.406 89.9482 41.894C89.7777 41.2115 90.204 40.5289 90.886 40.3582C91.8239 40.1022 92.1649 38.8224 91.9091 37.7132C91.6534 36.6893 90.6303 36.092 89.6072 36.348C89.0956 36.4333 88.0725 37.0306 87.4757 38.2251C87.1346 38.8224 86.3673 39.0784 85.7705 38.7371C85.1737 38.3958 84.9179 37.6278 85.259 37.0306C86.1968 35.1534 87.8167 34.1295 89.0956 33.8736C91.3976 33.2763 93.7848 34.7268 94.3817 37.1159C94.9785 39.4196 93.8701 42.2353 91.4829 42.8326C91.3976 42.8326 91.3123 42.8326 91.2271 42.8326Z" fill="#393936"/>
<path d="M94.6375 51.3651C94.2965 51.3651 93.9554 51.2798 93.6996 51.0238C92.5913 49.9146 89.9482 45.3071 89.9482 41.5528C89.9482 40.8702 90.5451 40.2729 91.2271 40.2729C91.9092 40.2729 92.506 40.8702 92.506 41.5528C92.506 44.4538 94.808 48.4641 95.5753 49.1467C96.0869 49.6586 96.0869 50.4265 95.5753 50.9385C95.3196 51.2798 94.9785 51.3651 94.6375 51.3651Z" fill="#393936"/>
<path d="M104.442 61.6041C104.272 61.6041 104.016 61.5188 103.845 61.4334C103.249 61.0922 102.993 60.3242 103.249 59.727C103.249 59.727 104.613 56.8259 104.016 52.8157C103.249 48.4642 99.753 47.0137 99.6677 46.9283C99.0709 46.6724 98.7299 46.0751 98.9004 45.3925C99.6677 42.2355 99.3267 38.6519 98.5594 34.215C97.6215 28.5836 92.4207 25.5973 89.5219 24.6587C87.2199 23.9761 82.1044 23.6348 78.2677 25.9386C75.9657 27.3038 74.6016 29.4369 74.09 32.1672C74.0048 32.8498 73.3227 33.3618 72.6406 33.1911C71.9586 33.1058 71.447 32.4232 71.6175 31.7406C72.2143 28.3276 74.09 25.5119 76.9888 23.8055C81.5076 21.0751 87.4757 21.3311 90.2892 22.2696C94.8932 23.7201 100.094 27.8157 101.117 33.7884C101.884 38.0546 102.225 41.7236 101.629 44.9659C103.078 45.9044 105.806 48.0375 106.574 52.3038C107.426 57.1672 105.636 60.6655 105.636 60.7509C105.38 61.3481 104.869 61.6041 104.442 61.6041Z" fill="#393936"/>
<path d="M85.941 64.9316C85.6852 64.9316 85.3442 64.9316 85.0884 64.9316C84.4063 64.8462 83.8948 64.249 83.8948 63.5664C83.98 62.8838 84.5768 62.3718 85.2589 62.3718C86.282 62.4572 87.3051 62.2865 88.4135 61.9452C92.5912 60.4947 93.6996 55.8872 93.6996 55.8019C93.8701 55.1193 94.5521 54.6927 95.2342 54.8633C95.9163 55.034 96.3426 55.7166 96.1721 56.3991C96.0868 56.6551 94.7227 62.4572 89.1808 64.3343C88.1577 64.7609 87.0494 64.9316 85.941 64.9316Z" fill="#393936"/>
<path d="M71.6175 99.1466C70.9354 99.1466 70.3386 98.5493 70.3386 97.8667V89.3343C70.3386 88.6517 70.9354 88.0544 71.6175 88.0544H88.243V73.9759C88.243 69.0271 90.545 65.8701 94.2111 65.8701C94.8932 65.8701 95.49 66.4674 95.49 67.15C95.49 67.8326 94.8932 68.4298 94.2111 68.4298C91.0566 68.4298 90.8008 72.6961 90.8008 73.9759V89.3343C90.8008 90.0169 90.204 90.6141 89.5219 90.6141H72.8964V96.5868H95.49C96.9394 96.5868 98.4741 94.6244 98.4741 92.7473C98.4741 92.0647 99.0709 91.4674 99.753 91.4674C100.435 91.4674 101.032 92.0647 101.032 92.7473C101.032 96.0749 98.3888 99.0612 95.49 99.1466H71.6175Z" fill="#393936"/>
<path d="M62.9211 99.9996C61.3864 99.9996 59.937 99.2317 58.7434 97.8665C58.5729 97.6105 58.4023 97.3545 58.4023 97.0132V92.747C58.4023 91.8085 59.0844 90.5286 59.937 89.7607C60.7043 89.0781 61.5569 88.8221 62.4095 88.9074C62.6653 88.9074 62.9211 89.0781 63.1768 89.2487L64.541 90.6139H65.6494C66.3314 90.6139 66.9282 91.2112 66.9282 91.8938C66.9282 92.5764 66.3314 93.1736 65.6494 93.1736H63.9442C63.6031 93.1736 63.2621 93.003 63.0063 92.8324L61.7274 91.5525L61.6422 91.6378C61.2159 91.9791 60.9601 92.5764 60.8749 92.747V96.5013C61.7274 97.3545 62.4948 97.4399 62.9211 97.4399H65.5641C66.9282 97.3545 67.6956 97.3545 68.5482 96.7573L70.4239 95.4774C71.0207 95.0508 71.788 95.2214 72.2143 95.8187C72.6406 96.416 72.4701 97.1839 71.8733 97.6105L69.9976 98.8904C68.5482 99.8289 67.184 99.9143 65.6494 99.9996H63.0063H62.9211Z" fill="#393936"/>
<path d="M71.1911 91.2114C70.9354 91.2114 70.7648 91.1261 70.5091 91.0407L67.0134 88.993H65.3083L63.9441 90.3581C63.4326 90.8701 62.6652 90.8701 62.1537 90.3581C61.6421 89.8462 61.6421 89.0783 62.1537 88.5663L63.8589 86.8599C64.1146 86.6039 64.4557 86.5186 64.7967 86.5186H67.3545C67.6103 86.5186 67.7808 86.6039 68.0366 86.6892L71.8732 88.9076C72.47 89.2489 72.7258 90.0168 72.2995 90.6994C72.0437 90.9554 71.6174 91.2114 71.1911 91.2114Z" fill="#393936"/>
<path d="M86.5378 38.5661C86.0262 38.5661 85.5999 38.3102 85.3442 37.7982C83.2127 32.8494 76.6478 34.2999 76.5625 34.2999C75.8804 34.4706 75.1984 34.0439 75.0278 33.3614C74.8573 32.6788 75.2836 31.9962 75.9657 31.8255C78.9497 31.1429 85.2589 31.3136 87.6462 36.8596C87.9019 37.5422 87.6462 38.2248 86.9641 38.5661C86.8788 38.5661 86.7083 38.5661 86.5378 38.5661Z" fill="#393936"/>
<path d="M43.482 82.0816C43.3115 82.0816 43.1409 82.0816 42.9704 81.9963C42.3736 81.655 42.0326 80.8871 42.3736 80.2898L47.1481 70.2215H42.2031C41.7768 70.2215 41.3505 69.9656 41.0947 69.6243C40.8389 69.283 40.8389 68.771 41.0095 68.3444L44.8461 60.5799C45.1872 59.9826 45.9545 59.7267 46.5513 59.9826C47.1481 60.3239 47.4039 61.0918 47.1481 61.6891L44.164 67.5765H49.0238C49.4501 67.5765 49.8764 67.8325 50.1322 68.1738C50.388 68.5151 50.388 69.027 50.2174 69.3683L44.5051 81.2284C44.4198 81.7403 43.9935 82.0816 43.482 82.0816Z" fill="#FF6F41"/>
<path d="M59.9371 64.6754C59.7666 64.6754 59.5961 64.6754 59.4255 64.5901C58.7435 64.2488 58.4877 63.5662 58.8287 62.8836L61.3865 57.4229H57.0383C56.612 57.4229 56.1857 57.1669 55.9299 56.8256C55.6742 56.4843 55.6742 55.9723 55.8447 55.5457L59.3403 48.5491C59.6813 47.9519 60.4487 47.6959 61.0455 47.9519C61.6423 48.2932 61.8981 49.0611 61.6423 49.6584L59.0845 54.8631H63.3475C63.7738 54.8631 64.2 55.1191 64.4558 55.4604C64.7116 55.8017 64.7116 56.3136 64.5411 56.6549L61.1307 63.9075C60.8749 64.4194 60.4487 64.6754 59.9371 64.6754Z" fill="#FF6F41"/>
</g>
<defs>
<clipPath id="clip0_119_1089">
<rect width="107" height="100" fill="white"/>
</clipPath>
</defs>
</svg>
